<svg xmlns="http://www.w3.org/2000/svg" viewBox="0 0 1200 900"><defs><style>.cls-1{opacity:0;}.cls-2{fill:#006d00;}.cls-3{fill:#006c00;}.cls-4{fill:#1ca100;}.cls-5{fill:#068600;}.cls-6{fill:#51cd00;}.cls-7{fill:#4cc800;}.cls-8{fill:#7ee900;}.cls-9{fill:#9df915;}.cls-10{fill:#a3fd25;}.cls-11{fill:#97fc20;}.cls-12{fill:#afff36;}.cls-13{fill:#adff47;}.cls-14{fill:#bcff6b;}.cls-15{fill:#b8ff62;}.cls-16{fill:#c2ff7b;}.cls-17{fill:#a8ff58;}.cls-18{fill:#b2ff5c;}.cls-19{fill:#83eb00;}.cls-20{fill:#aeff4c;}.cls-21{fill:#c2ff89;}.cls-22{fill:#cdffa9;}.cls-23{fill:#c2ff8b;}.cls-24{fill:#bfff84;}.cls-25{fill:#c7ff9d;}.cls-26{fill:#c9ff9b;}.cls-27{fill:#d2ffbb;}.cls-28{fill:#d5ffcc;}.cls-29{fill:#d4ffc7;}.cls-30{fill:#d6ffcd;}.cls-31{fill:#d2ffb9;}.cls-32{fill:#d6ffd1;}.cls-33{fill:#d7ffd2;}.cls-34{fill:#d7ffd3;}.cls-35{fill:#d9ffd9;}.cls-36{fill:#d8ffd4;}.cls-37{opacity:0.5;}.cls-38{fill:#007a00;}.cls-39{fill:#149800;}.cls-40{fill:#2cb500;}.cls-41{fill:#2db300;}.cls-42{fill:#42c300;}.cls-43{fill:#55d400;}.cls-44{fill:#66e239;}.cls-45{fill:#77e702;}.cls-46{fill:#3fcb15;}.cls-47{fill:#5fe32d;}.cls-48{fill:#8cfa44;}.cls-49{fill:#b5ff73;}.cls-50{fill:#b6ff6f;}.cls-51{fill:#beff96;}.cls-52{fill:#caffa1;}.cls-53{fill:#cdffb4;}.cls-54{fill:#cfffc1;}.cls-55{fill:#ceffbe;}.cls-56{fill:#c5ffb3;}.cls-57{fill:#d3ffcc;}.cls-58{fill:#d6ffd4;}.cls-59{fill:#c5ffbf;}.cls-60{fill:#d2ffd0;}.cls-61{fill:#9dffa5;}.cls-62{fill:#d1ffd1;}.cls-63{fill:#9cffa8;}.cls-64{fill:#b5ffb9;}.cls-65{fill:#c3ffc6;}.cls-66{fill:#c9ffc8;}.cls-67{fill:#d4ffd4;}.cls-68{fill:#cbffca;}.cls-69{fill:#d7ffd7;}.cls-70{opacity:0.55;}.cls-71{fill:#007200;}.cls-72{fill:#008400;}.cls-73{fill:#008300;}.cls-74{fill:#008c03;}.cls-75{fill:#15a306;}.cls-76{fill:#91ff6b;}.cls-77{fill:#c9ffb8;}.cls-78{fill:#98ff78;}.cls-79{fill:#b8ffa1;}.cls-80{fill:#beff9c;}.cls-81{fill:#c2ffbe;}.cls-82{fill:#bdffab;}.cls-83{fill:#c3ffb4;}.cls-84{fill:#adffa9;}.cls-85{fill:#8dff90;}.cls-86{fill:#29e477;}.cls-87{fill:#1bd871;}.cls-88{fill:#00bc5d;}.cls-89{fill:#28b85e;}.cls-90{fill:#5ddf82;}.cls-91{opacity:0.6;}.cls-92{fill:#007b04;}.cls-93{fill:#65f972;}.cls-94{fill:#98ff92;}.cls-95{fill:#9bff93;}.cls-96{opacity:0.65;}.cls-97{fill:#007b0b;}.cls-98{fill:#008f11;}.cls-99{fill:#039b18;}.cls-100{fill:#007f16;}.cls-101{fill:#008919;}.cls-102{fill:#60f060;}.cls-103{fill:#84ffa2;}.cls-104{fill:#87ff93;}.cls-105{fill:#7eff9f;}.cls-106{fill:#7dffa0;}.cls-107{fill:#86ffa5;}.cls-108{fill:#11e579;}.cls-109{fill:#03e77d;}.cls-110{fill:#5dffb0;}.cls-111{opacity:0.7;}.cls-112{fill:#008b2a;}.cls-113{fill:#00b14e;}.cls-114{fill:#00d977;}.cls-115{fill:#27ec7c;}.cls-116{fill:#19ec88;}.cls-117{fill:#43fe91;}.cls-118{fill:#00d870;}.cls-119{fill:#00c368;}.cls-120{fill:#00c263;}.cls-121{opacity:0.75;}.cls-122{fill:#00ac52;}.cls-123{fill:#00e280;}.cls-124{opacity:0.8;}.cls-125{fill:#008f37;}.cls-126{fill:#009a4c;}.cls-127{fill:#00701a;}.cls-128{fill:#009d4e;}.cls-129{fill:#00b566;}.cls-130{fill:#00ab58;}.cls-131{fill:#00aa59;}.cls-132{fill:#00c674;}.cls-133{fill:#34ffa7;}.cls-134{fill:#34ffaa;}.cls-135{fill:#21f9a3;}.cls-136{fill:#00ec93;}.cls-137{fill:#26f99e;}.cls-138{fill:#00e189;}.cls-139{fill:#5fffbb;}.cls-140{fill:#62ffbc;}.cls-141{fill:#00e794;}.cls-142{fill:#49ffb1;}.cls-143{fill:#02ed9c;}.cls-144{fill:#00dd84;}.cls-145{fill:#00c269;}.cls-146{fill:#00db88;}.cls-147{fill:#21f5a3;}.cls-148{fill:#00ba66;}.cls-149{opacity:0.85;}.cls-150{fill:#00c273;}.cls-151{fill:#43ffb3;}.cls-152{fill:#00d17f;}.cls-153{fill:#00c675;}.cls-154{fill:#0efba6;}.cls-155{fill:#00ec99;}.cls-156{fill:#08f6a6;}.cls-157{fill:#00efa1;}</style></defs><g id="Capa_2" data-name="Capa 2"><g class="cls-1"><polygon class="cls-2" points="69.47 0 0 0 0 0 69.47 0"/><polygon class="cls-3" points="0 0 0 0 195.79 0 0 0"/><polygon class="cls-4" points="69.47 0 0 93.79 101.05 99.47 69.47 0"/><polygon class="cls-5" points="69.47 0 0 0 0 93.79 69.47 0"/><polygon class="cls-6" points="101.05 99.47 0 93.79 0 187.58 101.05 99.47"/><polygon class="cls-7" points="101.05 99.47 0 187.58 88.42 203.68 101.05 99.47"/><polygon class="cls-8" points="88.42 203.68 0 187.58 6.32 232.11 88.42 203.68"/><polygon class="cls-9" points="88.42 203.68 6.32 232.11 0 282.32 88.42 203.68"/><polygon class="cls-10" points="88.42 203.68 0 282.32 69.47 341.05 88.42 203.68"/><polygon class="cls-11" points="265.26 217.89 88.42 203.68 69.47 341.05 265.26 217.89"/><polygon class="cls-12" points="69.47 341.05 0 282.32 0 376.11 69.47 341.05"/><polygon class="cls-13" points="69.47 341.05 0 376.11 31.58 397.89 69.47 341.05"/><polygon class="cls-14" points="265.26 217.89 69.47 341.05 195.79 402.63 265.26 217.89"/><polygon class="cls-15" points="69.47 341.05 31.58 397.89 82.11 435.79 69.47 341.05"/><polygon class="cls-16" points="195.79 402.63 69.47 341.05 82.11 435.79 195.79 402.63"/><polygon class="cls-17" points="82.11 435.79 31.58 397.89 31.58 459.47 82.11 435.79"/><polygon class="cls-18" points="31.58 459.47 31.58 397.89 0 470.84 31.58 459.47"/><polygon class="cls-19" points="6.32 232.11 0 187.58 0 282.32 6.32 232.11"/><polygon class="cls-20" points="31.58 397.89 0 376.11 0 470.84 31.58 397.89"/><polygon class="cls-21" points="195.79 402.63 82.11 435.79 151.58 487.9 195.79 402.63"/><polygon class="cls-22" points="195.79 402.63 151.58 487.9 290.53 487.9 195.79 402.63"/><polygon class="cls-23" points="82.11 435.79 31.58 459.47 151.58 487.9 82.11 435.79"/><polygon class="cls-24" points="31.58 459.47 0 470.84 69.47 554.21 31.58 459.47"/><polygon class="cls-25" points="151.58 487.9 31.58 459.47 69.47 554.21 151.58 487.9"/><polygon class="cls-26" points="69.47 554.21 0 470.84 0 564.63 69.47 554.21"/><polygon class="cls-27" points="69.47 554.21 0 564.63 0 659.37 69.47 554.21"/><polygon class="cls-28" points="429.47 549.47 290.53 487.9 341.05 691.58 429.47 549.47"/><polygon class="cls-29" points="69.47 554.21 0 659.37 50.53 701.05 69.47 554.21"/><polygon class="cls-30" points="290.53 487.9 69.47 554.21 341.05 691.58 290.53 487.9"/><polygon class="cls-31" points="290.53 487.9 151.58 487.9 69.47 554.21 290.53 487.9"/><polygon class="cls-32" points="50.53 701.05 0 659.37 6.32 738.95 50.53 701.05"/><polygon class="cls-33" points="341.05 691.58 69.47 554.21 50.53 701.05 341.05 691.58"/><polygon class="cls-34" points="341.05 691.58 322.11 800.53 498.95 805.26 341.05 691.58"/><polygon class="cls-34" points="6.32 738.95 0 659.37 0 753.16 6.32 738.95"/><polygon class="cls-35" points="341.05 691.58 50.53 701.05 322.11 800.53 341.05 691.58"/><polygon class="cls-36" points="50.53 701.05 6.32 738.95 0 753.16 50.53 701.05"/><polygon class="cls-35" points="322.11 800.53 50.53 701.05 195.79 900 322.11 800.53"/><polygon class="cls-35" points="50.53 701.05 0 753.16 195.79 900 50.53 701.05"/><polygon class="cls-35" points="0 847.9 69.47 900 195.79 900 0 847.9"/><polygon class="cls-35" points="0 753.16 0 847.9 195.79 900 0 753.16"/><polygon class="cls-35" points="69.47 900 0 847.9 0 900 69.47 900"/></g><g class="cls-37"><polygon class="cls-38" points="195.79 0 69.47 0 208.42 47.37 195.79 0"/><polygon class="cls-39" points="208.42 47.37 69.47 0 101.05 99.47 208.42 47.37"/><polygon class="cls-40" points="246.31 75.79 208.42 47.37 189.47 142.11 246.31 75.79"/><polygon class="cls-41" points="208.42 47.37 101.05 99.47 189.47 142.11 208.42 47.37"/><polygon class="cls-42" points="189.47 142.11 101.05 99.47 88.42 203.68 189.47 142.11"/><polygon class="cls-43" points="246.31 75.79 189.47 142.11 265.26 217.89 246.31 75.79"/><polygon class="cls-44" points="429.47 85.26 246.31 75.79 265.26 217.89 429.47 85.26"/><polygon class="cls-45" points="189.47 142.11 88.42 203.68 265.26 217.89 189.47 142.11"/><polygon class="cls-46" points="498.95 123.16 429.47 85.26 265.26 217.89 498.95 123.16"/><polygon class="cls-47" points="530.53 151.58 498.95 123.16 265.26 217.89 530.53 151.58"/><polygon class="cls-48" points="530.53 151.58 265.26 217.89 397.89 312.63 530.53 151.58"/><polygon class="cls-49" points="397.89 312.63 265.26 217.89 341.05 355.26 397.89 312.63"/><polygon class="cls-50" points="341.05 355.26 265.26 217.89 195.79 402.63 341.05 355.26"/><polygon class="cls-51" points="397.89 312.63 341.05 355.26 517.89 426.32 397.89 312.63"/><polygon class="cls-52" points="341.05 355.26 195.79 402.63 290.53 487.9 341.05 355.26"/><polygon class="cls-53" points="517.89 426.32 341.05 355.26 290.53 487.9 517.89 426.32"/><polygon class="cls-54" points="524.21 473.68 517.89 426.32 290.53 487.9 524.21 473.68"/><polygon class="cls-55" points="524.21 473.68 290.53 487.9 429.47 549.47 524.21 473.68"/><polygon class="cls-56" points="543.16 535.26 524.21 473.68 429.47 549.47 543.16 535.26"/><polygon class="cls-57" points="543.16 535.26 429.47 549.47 341.05 691.58 543.16 535.26"/><polygon class="cls-58" points="543.16 535.26 341.05 691.58 498.95 805.26 543.16 535.26"/><polygon class="cls-59" points="751.58 748.42 543.16 535.26 498.95 805.26 751.58 748.42"/><polygon class="cls-60" points="498.95 805.26 322.11 800.53 423.16 852.63 498.95 805.26"/><polygon class="cls-61" points="751.58 748.42 498.95 805.26 745.26 810 751.58 748.42"/><polygon class="cls-62" points="423.16 852.63 322.11 800.53 353.69 885.79 423.16 852.63"/><polygon class="cls-63" points="745.26 810 498.95 805.26 572.21 900 745.26 810"/><polygon class="cls-64" points="572.21 900 498.95 805.26 447.16 900 572.21 900"/><polygon class="cls-65" points="498.95 805.26 423.16 852.63 447.16 900 498.95 805.26"/><polygon class="cls-66" points="423.16 852.63 353.69 885.79 447.16 900 423.16 852.63"/><polygon class="cls-67" points="353.69 885.79 322.11 800.53 320.84 900 353.69 885.79"/><polygon class="cls-68" points="447.16 900 353.69 885.79 320.84 900 447.16 900"/><polygon class="cls-69" points="320.84 900 322.11 800.53 195.79 900 320.84 900"/></g><g class="cls-70"><polygon class="cls-71" points="320.84 0 195.79 0 303.16 28.42 320.84 0"/><polygon class="cls-72" points="303.16 28.42 195.79 0 208.42 47.37 303.16 28.42"/><polygon class="cls-73" points="303.16 28.42 208.42 47.37 246.31 75.79 303.16 28.42"/><polygon class="cls-74" points="320.84 0 303.16 28.42 429.47 85.26 320.84 0"/><polygon class="cls-75" points="303.16 28.42 246.31 75.79 429.47 85.26 303.16 28.42"/><polygon class="cls-76" points="618.95 279.48 530.53 151.58 480 298.42 618.95 279.48"/><polygon class="cls-77" points="480 298.42 530.53 151.58 397.89 312.63 480 298.42"/><polygon class="cls-78" points="618.95 279.48 480 298.42 625.26 317.37 618.95 279.48"/><polygon class="cls-79" points="625.26 317.37 480 298.42 517.89 426.32 625.26 317.37"/><polygon class="cls-80" points="480 298.42 397.89 312.63 517.89 426.32 480 298.42"/><polygon class="cls-81" points="625.26 317.37 517.89 426.32 701.05 478.42 625.26 317.37"/><polygon class="cls-82" points="517.89 426.32 524.21 473.68 701.05 478.42 517.89 426.32"/><polygon class="cls-83" points="701.05 478.42 524.21 473.68 543.16 535.26 701.05 478.42"/><polygon class="cls-84" points="701.05 478.42 543.16 535.26 821.05 696.32 701.05 478.42"/><polygon class="cls-85" points="821.05 696.32 543.16 535.26 751.58 748.42 821.05 696.32"/><polygon class="cls-86" points="821.05 696.32 751.58 748.42 972.63 847.9 821.05 696.32"/><polygon class="cls-87" points="751.58 748.42 745.26 810 972.63 847.9 751.58 748.42"/><polygon class="cls-88" points="972.63 847.9 745.26 810 823.58 900 972.63 847.9"/><polygon class="cls-89" points="823.58 900 745.26 810 698.53 900 823.58 900"/><polygon class="cls-90" points="698.53 900 745.26 810 572.21 900 698.53 900"/></g><g class="cls-91"><polygon class="cls-92" points="447.16 0 320.84 0 429.47 85.26 447.16 0"/><polygon class="cls-93" points="802.11 198.95 618.95 279.48 732.63 326.84 802.11 198.95"/><polygon class="cls-94" points="618.95 279.48 625.26 317.37 732.63 326.84 618.95 279.48"/><polygon class="cls-95" points="732.63 326.84 625.26 317.37 701.05 478.42 732.63 326.84"/></g><g class="cls-96"><polygon class="cls-97" points="572.21 0 447.16 0 429.47 85.26 572.21 0"/><polygon class="cls-98" points="572.21 0 429.47 85.26 498.95 123.16 572.21 0"/><polygon class="cls-99" points="572.21 0 498.95 123.16 530.53 151.58 572.21 0"/><polygon class="cls-100" points="698.53 0 572.21 0 530.53 151.58 698.53 0"/><polygon class="cls-101" points="698.53 0 530.53 151.58 802.11 198.95 698.53 0"/><polygon class="cls-102" points="802.11 198.95 530.53 151.58 618.95 279.48 802.11 198.95"/><polygon class="cls-103" points="802.11 198.95 732.63 326.84 871.58 383.68 802.11 198.95"/><polygon class="cls-104" points="871.58 383.68 732.63 326.84 701.05 478.42 871.58 383.68"/><polygon class="cls-105" points="915.79 473.68 871.58 383.68 701.05 478.42 915.79 473.68"/><polygon class="cls-106" points="915.79 473.68 701.05 478.42 915.79 606.32 915.79 473.68"/><polygon class="cls-107" points="915.79 606.32 701.05 478.42 821.05 696.32 915.79 606.32"/><polygon class="cls-108" points="915.79 606.32 821.05 696.32 1035.79 715.26 915.79 606.32"/><polygon class="cls-109" points="1035.79 715.26 821.05 696.32 972.63 847.9 1035.79 715.26"/><polygon class="cls-110" points="949.89 900 972.63 847.9 823.58 900 949.89 900"/></g><g class="cls-111"><polygon class="cls-112" points="865.26 61.58 698.53 0 802.11 198.95 865.26 61.58"/><polygon class="cls-113" points="865.26 61.58 802.11 198.95 1073.68 241.58 865.26 61.58"/><polygon class="cls-114" points="1073.68 241.58 802.11 198.95 1067.37 270 1073.68 241.58"/><polygon class="cls-115" points="1067.37 270 802.11 198.95 871.58 383.68 1067.37 270"/><polygon class="cls-116" points="1067.37 270 871.58 383.68 1105.26 435.79 1067.37 270"/><polygon class="cls-117" points="1105.26 435.79 871.58 383.68 915.79 473.68 1105.26 435.79"/><polygon class="cls-118" points="1187.37 506.84 915.79 473.68 915.79 606.32 1187.37 506.84"/><polygon class="cls-119" points="1200 564.63 1187.37 506.84 915.79 606.32 1200 564.63"/><polygon class="cls-120" points="1200 564.63 915.79 606.32 1035.79 715.26 1200 564.63"/></g><g class="cls-121"><polygon class="cls-122" points="1117.89 132.63 865.26 61.58 1073.68 241.58 1117.89 132.63"/><polygon class="cls-123" points="1105.26 435.79 915.79 473.68 1187.37 506.84 1105.26 435.79"/></g><g class="cls-124"><polygon class="cls-125" points="949.89 0 823.58 0 865.26 61.58 949.89 0"/><polygon class="cls-126" points="1200 93.79 1074.95 0 1117.89 132.63 1200 93.79"/><polygon class="cls-127" points="823.58 0 698.53 0 865.26 61.58 823.58 0"/><polygon class="cls-128" points="1074.95 0 949.89 0 1117.89 132.63 1074.95 0"/><polygon class="cls-129" points="1200 93.79 1117.89 132.63 1200 187.58 1200 93.79"/><polygon class="cls-130" points="949.89 0 865.26 61.58 1117.89 132.63 949.89 0"/><polygon class="cls-131" points="1200 187.58 1117.89 132.63 1073.68 241.58 1200 187.58"/><polygon class="cls-132" points="1200 187.58 1073.68 241.58 1200 282.32 1200 187.58"/><polygon class="cls-133" points="1073.68 241.58 1067.37 270 1149.47 312.63 1073.68 241.58"/><polygon class="cls-134" points="1200 282.32 1073.68 241.58 1149.47 312.63 1200 282.32"/><polygon class="cls-135" points="1200 376.11 1149.47 312.63 1105.26 435.79 1200 376.11"/><polygon class="cls-136" points="1193.68 397.89 1200 376.11 1105.26 435.79 1193.68 397.89"/><polygon class="cls-137" points="1149.47 312.63 1067.37 270 1105.26 435.79 1149.47 312.63"/><polygon class="cls-138" points="1193.68 397.89 1105.26 435.79 1200 470.84 1193.68 397.89"/><polygon class="cls-139" points="1200 470.84 1105.26 435.79 1187.37 506.84 1200 470.84"/><polygon class="cls-140" points="1200 376.11 1193.68 397.89 1200 470.84 1200 376.11"/><polygon class="cls-141" points="1200 470.84 1187.37 506.84 1200 564.63 1200 470.84"/><polygon class="cls-142" points="1200 659.37 1200 564.63 1035.79 715.26 1200 659.37"/><polygon class="cls-143" points="1200 659.37 1035.79 715.26 1200 753.16 1200 659.37"/><polygon class="cls-144" points="1200 753.16 1035.79 715.26 1080 781.58 1200 753.16"/><polygon class="cls-145" points="1080 781.58 1035.79 715.26 972.63 847.9 1080 781.58"/><polygon class="cls-146" points="1080 781.58 972.63 847.9 1130.53 852.63 1080 781.58"/><polygon class="cls-147" points="972.63 847.9 949.89 900 1074.95 900 972.63 847.9"/><polygon class="cls-148" points="1130.53 852.63 972.63 847.9 1074.95 900 1130.53 852.63"/></g><g class="cls-149"><polygon class="cls-150" points="1200 0 1074.95 0 1200 93.79 1200 0"/><polygon class="cls-151" points="1200 282.32 1149.47 312.63 1200 376.11 1200 282.32"/><polygon class="cls-152" points="1200 753.16 1080 781.58 1136.84 838.42 1200 753.16"/><polygon class="cls-153" points="1200 753.16 1136.84 838.42 1200 847.9 1200 753.16"/><polygon class="cls-154" points="1200 847.9 1136.84 838.42 1130.53 852.63 1200 847.9"/><polygon class="cls-155" points="1136.84 838.42 1080 781.58 1130.53 852.63 1136.84 838.42"/><polygon class="cls-156" points="1200 847.9 1130.53 852.63 1200 900 1200 847.9"/><polygon class="cls-157" points="1200 900 1130.53 852.63 1074.95 900 1200 900"/></g></g></svg>