<svg id="Capa_2" data-name="Capa 2" xmlns="http://www.w3.org/2000/svg" width="1920" height="1080" viewBox="0 0 1920 1080"><defs><style>.cls-1,.cls-88{opacity:0.85;}.cls-2{fill:#32e1ca;}.cls-3{fill:#34d7c7;}.cls-4{fill:#31d5c1;}.cls-5{fill:#29b7a5;}.cls-6{fill:#2cceb6;}.cls-7{fill:#29bea7;}.cls-8{fill:#2ccab2;}.cls-9{fill:#2bc5ad;}.cls-10{fill:#39e4d7;}.cls-11{fill:#46dbe8;}.cls-12{fill:#3fd7db;}.cls-13{fill:#3fe4e0;}.cls-14{fill:#3ce4dc;}.cls-15{fill:#3cced2;}.cls-16{fill:#3cd8d6;}.cls-17{fill:#35d4c9;}.cls-18{fill:#32cfc0;}.cls-19{fill:#2dc4b1;}.cls-20{fill:#32b3b0;}.cls-21{fill:#2fb3ae;}.cls-22{fill:#32dac4;}.cls-23{fill:#2cb8aa;}.cls-24{fill:#2cb2a9;}.cls-25{fill:#2ecab6;}.cls-26{fill:#33b7b4;}.cls-27{fill:#36b1b8;}.cls-28{fill:#2bbfad;}.cls-29{fill:#36b8bb;}.cls-30{fill:#36d0c9;}.cls-31{fill:#33d3c3;}.cls-32{fill:#30c0b5;}.cls-33{fill:#30c8b9;}.cls-34{fill:#30c6b7;}.cls-35{fill:#33c1bb;}.cls-36{fill:#33d2c3;}.cls-101,.cls-105,.cls-113,.cls-118,.cls-121,.cls-122,.cls-37,.cls-90{opacity:0.75;}.cls-38{fill:#43dce4;}.cls-39{fill:#46d7e8;}.cls-40{fill:#4bdaf2;}.cls-41{fill:#45d7e4;}.cls-42{fill:#3fd2d9;}.cls-43{fill:#4acee7;}.cls-100,.cls-123,.cls-43{opacity:0.9;}.cls-44{fill:#46cbe0;}.cls-45{fill:#43cdde;}.cls-46{fill:#4dd9f5;}.cls-47{fill:#59dffc;}.cls-48{fill:#3cbcc8;}.cls-49{fill:#40b3c9;}.cls-50{fill:#4eaec4;}.cls-51{fill:#48b5cc;}.cls-52{fill:#3cadbf;}.cls-53{fill:#3bc9cd;}.cls-54{fill:#40c9d6;}.cls-55{fill:#39d0cd;}.cls-56{fill:#3ac7cb;}.cls-57{fill:#3bc2c9;}.cls-58{fill:#38d8d2;}.cls-59{fill:#37bcbf;}.cls-60{fill:#3fb0c6;}.cls-61{fill:#3db1c4;opacity:0.95;}.cls-62{fill:#3ab5bf;}.cls-63{fill:#3caec0;}.cls-64{fill:#3fbecd;}.cls-65{fill:#38cac8;}.cls-66{fill:#40c8d5;}.cls-67{fill:#3ec2ce;}.cls-68{fill:#35d3c7;}.cls-69{fill:#34c5bf;}.cls-70{fill:#3ac0c7;}.cls-71{fill:#33cec2;}.cls-72{fill:#39c2c5;}.cls-73{fill:#35bebc;}.cls-74{fill:#37b6bd;}.cls-75{fill:#3db9c7;}.cls-76{fill:#32beb9;}.cls-77{fill:#34bbb9;}.cls-78,.cls-97{opacity:0.65;}.cls-79{fill:#78d8ed;}.cls-80{fill:#86daed;}.cls-81{fill:#73e1f9;}.cls-82{fill:#7adbf0;}.cls-111,.cls-82{opacity:0.45;}.cls-83{fill:#5fd6f0;}.cls-84{fill:#67b9cb;}.cls-85{fill:#7fc0ce;}.cls-86{fill:#76bece;}.cls-87{fill:#43cedf;}.cls-88{fill:#51cde7;}.cls-89{fill:#47d0e6;}.cls-90{fill:#48cae3;}.cls-91{fill:#5ccfe7;}.cls-92{fill:#45c9df;}.cls-93{fill:#44bed6;}.cls-124,.cls-93{opacity:0.8;}.cls-94{fill:#41bcd1;}.cls-95{fill:#98e7f8;}.cls-102,.cls-109,.cls-119,.cls-95{opacity:0.2;}.cls-96{fill:#6dd5eb;}.cls-108,.cls-96{opacity:0.4;}.cls-97{fill:#63b2c3;}.cls-98{fill:#50b3c9;}.cls-99{fill:#59c8df;opacity:0.55;}.cls-100{fill:#49b8cf;}.cls-101{fill:#4dc0d9;}.cls-102{fill:#a0dfee;}.cls-103{fill:#8ed8e8;}.cls-103,.cls-110,.cls-114,.cls-120{opacity:0.15;}.cls-104{fill:#8ae0f4;opacity:0.35;}.cls-105{fill:#61bdd1;}.cls-106{fill:#94c2cd;opacity:0.05;}.cls-107{fill:#84b9c4;}.cls-107,.cls-116{opacity:0.1;}.cls-108{fill:#79b7c5;}.cls-109{fill:#83d5e7;}.cls-110{fill:#78d8ec;}.cls-111{fill:#66c6dc;}.cls-112{fill:#68bccd;}.cls-112,.cls-115{opacity:0.3;}.cls-113{fill:#53bbd0;}.cls-114{fill:#78c1d2;}.cls-115{fill:#72b7c6;}.cls-116{fill:#81d2e3;}.cls-117{fill:#76d5e9;opacity:0.25;}.cls-118{fill:#58c4dc;}.cls-119{fill:#6cc2d5;}.cls-120{fill:#7bc7d8;}.cls-121{fill:#4ab9d1;}.cls-122{fill:#48b4cb;}.cls-123{fill:#43bdd4;}.cls-124{fill:#42b8ce;}</style></defs><g class="cls-1"><path class="cls-2" d="M1831.78,111.9033c1.3105-1.8442,3.9951-.2412,5.2949-2.1089a87.2678,87.2678,0,0,1,2.2764-11.3056c9.9228-40.5557,20.6367-80.9112,30.667-121.44.7011-2.834.9013-6.0176,4.01-7.6245h58.086a12.1311,12.1311,0,0,1,4.542,4.2153c11.457,17.2476,22.2871,34.9019,33.8808,52.0591a16.6277,16.6277,0,0,1,3.2891,9.2813c-.03,31.7651.0517,63.5161-.041,95.2622-2.4991,3.3276-5.8555,1.542-8.7276,1.1538-19.5176-2.6387-38.9424-5.9067-58.4521-8.6138-22.2871-3.0918-44.54-6.42-66.8682-9.2011a7.2106,7.2106,0,0,1-2.7949.0576C1835.15,113.2773,1833.0869,113.7051,1831.78,111.9033Z"/><path class="cls-3" d="M1874.0283-30.5757q-6.8364,26.72-13.67,53.4419-10.497,41.2551-20.93,82.5264c-.4277,1.6914-.3955,3.5576-2.3535,4.4018q-26.07-35.2756-52.1338-70.5556-25.7226-34.8816-51.374-69.8145Z"/><path class="cls-4" d="M1939.5068,211.124c-2.8427-4.6064-7.6787-7.1216-11.3779-10.832-9.5566-9.585-19.0859-19.1987-28.7285-28.6968q-28.1514-27.7317-56.4014-55.3633c-1.3681-1.3442-2.5527-2.8764-3.8213-4.3213,12.7715.6983,25.3262,3.1421,37.9786,4.7872,16.122,2.0966,32.2119,4.4614,48.2949,6.85,15.9072,2.3628,31.789,4.8989,47.6826,7.3589q-.0043,29.0427-.0068,58.0854c-1.2832,3.1567-4.1875,4.6313-6.76,6.4121-8.0664,5.584-16.3291,10.8887-24.0606,16.9546a3.39,3.39,0,0,1-1.4287.5352,2.9285,2.9285,0,0,1-1.4619-.4488A.9149.9149,0,0,1,1939.5068,211.124Z"/><path class="cls-5" d="M1973.13,1054.4043c.0576,17.043.0058,34.0879.2578,51.1289.0537,3.6494-1.5742,3.8428-4.41,3.832-22.1572-.0781-44.3144-.0195-66.4707-.0488q-34.2861-.0468-68.57-.1719c-1.2636-2.2392-.4228-4.4746.1006-6.664q14.083-58.9849,28.1006-117.9854c7.8447-33.1846,16.4932-66.1777,23.7158-99.51.3731-1.72.6543-3.4786,2.1485-4.6788a2.2917,2.2917,0,0,1,1.59-.4c1.7744.83,2.2,2.6386,2.9736,4.1806,18.0938,36.1221,35.0342,72.8018,52.8575,109.0557,8.4443,17.1767,16.3447,34.623,24.9638,51.7187C1971.9229,1047.9092,1972.4072,1051.17,1973.13,1054.4043Z"/><path class="cls-6" d="M1876.1357,542.542c7.3233-7.3472,12.8018-16.1436,18.9991-24.3623q33.8451-44.8821,67.3974-89.9854c3.5645-4.7671,7.0635-9.5835,10.5938-14.3764.0586,26.3784.1611,52.7573.164,79.1362.002,24.62-.1035,49.24-.1621,73.86-1.7871,1.4511-3.6982.6513-5.5468.2431-27.9981-6.1865-55.9141-12.7334-83.8555-19.1709a13.722,13.722,0,0,1-6.5283-3.2334l-.5254-.001-.5254.001q-.2213-.2256-.4424-.45A1.3331,1.3331,0,0,1,1876.1357,542.542Z"/><path class="cls-7" d="M1889.8652,880.29q.53-.0028,1.0616-.0048c1.9716-1.9512,4.23-1.167,6.4111-.5987,23.3613,6.0928,46.7305,12.1514,70.0566,18.377,2.2207.5928,4.4053,1.2217,5.7325,3.3379.0585,26.7314.16,53.4629.163,80.1943.002,24.2695-.1025,48.5391-.16,72.8086q-16.815-34.8208-33.6338-69.64-24.0747-49.7533-48.1953-99.4843C1890.53,883.6914,1889.7256,882.1318,1889.8652,880.29Z"/><path class="cls-8" d="M1877.1973,544.6533q28.0884,6.4512,56.1748,12.9063c13.2578,3.0586,26.6826,5.4072,39.7558,9.2549q0,55.3989-.0009,110.7968c-9.2139-12.51-18.4932-24.9717-27.629-37.5381q-30.9932-42.63-61.8281-85.374C1881.35,551.4805,1878.5791,548.4971,1877.1973,544.6533Z"/><path class="cls-9" d="M1973.127,901.4014q-39.2754-10.393-78.5577-20.76a22.3264,22.3264,0,0,0-3.6425-.3564c-.9532-3.585,1.8056-5.3985,3.7773-7.3995,9.7207-9.8632,19.6211-19.5507,29.3389-29.4179,14.99-15.2217,29.8769-30.5459,44.8291-45.8076,1.3427-1.37,2.833-2.5967,4.2549-3.89Z"/><g class="cls-1"><path class="cls-10" d="M1687.0986-30.5757h46.4688c2.4844,1.1455,4.1308,3.1621,5.709,5.31,31.455,42.8042,63.2031,85.3911,94.77,128.1133,1.7021,2.3042,4.3311,4.3637,3.3184,7.8823-1.7022,1.9355-4.2344,1.88-6.4053,2.7124-18.501,2.2358-37.1221,2.9995-55.668,4.6821-23.2666,2.1109-46.5693,3.7857-69.8428,5.8379-15.57,1.3735-31.1552,2.6729-46.7578,3.7246-14.37.9688-28.7,2.4932-43.0625,3.59-6.4707.4946-12.9267,1.2514-19.4287,1.1362a5.6619,5.6619,0,0,1-1.6738-.7334,2.3016,2.3016,0,0,1-.8955-1.42c-.0274-2.6128,1.5439-4.6,2.7676-6.6978,26.9707-46.228,53.6972-92.5986,80.6191-138.855C1680.0928-20.58,1682.374-26.3794,1687.0986-30.5757Z"/><path class="cls-11" d="M1314.2939,150.96c-8.6679-9.1894-17.2158-18.4951-26.0253-27.5468-29.168-29.9693-58.7188-59.5728-87.5215-89.8882-12.2315-12.8745-25.32-24.9087-37.1387-38.13-7.9668-8.9116-16.9307-16.8345-24.627-25.9712h153.1348c1.18,10.0425,2.3037,20.0918,3.5547,30.1255,1.5752,12.625,3.2646,25.2363,4.8867,37.8555q2.8668,22.3067,5.7041,44.6167c1.63,12.7949,3.1992,25.5976,4.8779,38.3862,1.3389,10.1934,2.8028,20.37,4.211,30.5542A.6918.6918,0,0,1,1314.2939,150.96Z"/><path class="cls-12" d="M1483.2754,77.083c-6.7852-6.3472-14.708-11.2109-22.1-16.7593-22.38-16.7978-44.9424-33.352-67.4737-49.9477q-26.41-19.4532-52.9-38.7974a21.8786,21.8786,0,0,1-2.2168-2.1543h233.3984c.7676,3.1709-1.8535,4.7622-3.3936,6.6621-18.4423,22.7486-37.22,45.2227-55.8291,67.835-7.7988,9.478-15.5419,19.0039-23.4472,28.395-1.4619,1.7373-2.7012,3.6856-4.6309,4.9951A1.3266,1.3266,0,0,1,1483.2754,77.083Z"/><path class="cls-13" d="M1484.332,77.08c2.5459-5.8975,7.4346-10.0508,11.3428-14.898,14.1563-17.5556,28.5938-34.8857,42.9346-52.2929q16.6758-20.2421,33.374-40.4649h16.8975c2.7236,2.7383,3.0371,6.3159,3.01,9.8071-.1172,14.74.9385,29.4527,1.0567,44.1729.1484,18.42.8613,36.8374,1.5517,55.2168.5323,14.1763-.4267,28.4238,1.41,42.5581.3935,3.0308-.8028,5.855-1.7481,8.6758q0,.5222-.0048,1.0439c-2.6944,1.169-4.7559-.5864-6.8731-1.6382-22.0156-10.9375-44.2715-21.39-66.1631-32.5737-10.3281-5.2759-21.0693-9.6753-31.3291-15.0762C1487.6816,80.5005,1485.0732,79.8818,1484.332,77.08Z"/><path class="cls-14" d="M1594.1611,129.855c-1.0957-26.749-1.6513-53.5127-2.4033-80.27-.2842-10.1259.1885-20.3383-.8926-30.3969-1.7812-16.5684.295-33.2476-1.9843-49.7642h98.2177c-5.5459,9.9136-10.9961,19.8828-16.6572,29.7305-13.8857,24.1509-27.6728,48.3618-41.8721,72.3271C1617.0557,90.9141,1606.4277,110.8677,1594.1611,129.855Z"/><path class="cls-15" d="M1411.45,286.0547c10.3652-30.1973,20.6523-60.4214,31.1152-90.585q19.66-56.6842,39.5352-113.2939c.4609-1.3208.7861-2.6885,1.1748-4.0342,2.7275.27,3.61,2.4316,4.4082,4.5063,20.42,53.042,41.14,105.9688,61.4736,159.044a3.7364,3.7364,0,0,1,.1485,1.0415,3.1819,3.1819,0,0,1-.544,1.582c-2.0293,2.1563-4.8183,2.7954-7.4765,3.6245-40.7041,12.6944-81.2569,25.8663-121.962,38.5567-2.46.7671-4.8818,2.1728-7.6211,1.0263A1,1,0,0,1,1411.45,286.0547Z"/><path class="cls-16" d="M1548.7441,242.7886c-5.0449-7.5093-7.1386-16.2974-10.3828-24.5532-16.955-43.1592-33.6054-86.4385-50.37-129.6729-1.3789-3.5586-1.8838-7.5171-4.7158-10.4209V77.083l1.0566-.0029q54.9126,26.9091,109.8243,53.8193l.0068.0215a4.3623,4.3623,0,0,1,.3428,3.1582c-3.9063,12.5879-9.8321,24.37-14.72,36.5674-8.6728,21.6435-17.6045,43.1831-26.3252,64.8086C1552.37,238.16,1551.668,241.2168,1548.7441,242.7886Z"/><path class="cls-17" d="M1593.1152,133.0229q.5244-1.0516,1.0479-2.1025c16.0029-1.3657,32.0019-2.7783,48.01-4.0815,10.2744-.8369,20.5751-1.3692,30.8408-2.2959,14.95-1.35,29.9463-2.1021,44.8662-3.9058,10.2236-1.2353,20.5547-1.5625,30.8291-2.4053,15.833-1.2993,31.6514-2.7866,47.4892-4.0141,11.85-.9185,23.7207-1.5532,35.5821-2.3145q2.6454.0037,5.29.0083c.8652,2.9-1.1885,4.6743-2.791,6.37-15.4326,16.3364-30.1895,33.2856-45.3564,49.8627-15.0459,16.4444-29.8663,33.1-44.8272,49.6226q-17.6718,19.516-35.3984,38.9883c-11.583,12.7148-23.377,25.2456-34.5752,38.3071-2.2959,2.6773-4.8379,5.0889-7.3653,7.5342a4.1575,4.1575,0,0,1-2.96.9517,2.8377,2.8377,0,0,1-1.8223-1.4888C1639.0469,245.7051,1615.8857,189.4438,1593.1152,133.0229Z"/><path class="cls-18" d="M1665.9766,301.8945c6.35-7.2251,12.5791-14.56,19.0732-21.6538,16.665-18.2026,33.4541-36.2886,49.7031-54.872,8.1817-9.357,16.8828-18.2574,25.2266-27.4756,15.501-17.126,30.8877-34.3545,46.3691-51.4981q11.6178-12.8649,23.4317-25.5508a51.1348,51.1348,0,0,0,7.29-8.9326q1.0533-.0007,2.1074-.001a25.7267,25.7267,0,0,1,6.7071,4.9957c27.52,27.1713,55.4912,53.8857,82.5566,81.5161,2.7178,2.7749,6.0664,4.8232,8.6807,7.684,1.4775,1.6167,3.624,3.08,2.374,5.858-2.0342,2.1591-4.8408,2.7778-7.4815,3.6582q-105.6634,35.2317-211.3779,70.3086-23.5547,7.776-47.1533,15.4355C1671.083,302.1411,1668.6162,303.7739,1665.9766,301.8945Z"/><path class="cls-19" d="M1973.127,677.6113v83.4473c-.6993,1.8682-2.334,2.4805-4.0284,3.0664-22.2656,7.6895-44.5234,15.3994-67.0361,22.3477-16.8027,5.1855-33.1973,11.5761-49.9443,16.9248-1.834.5859-3.5889,1.4775-5.5869,1.4863a2.4119,2.4119,0,0,1-1.5694-.8164,4.5458,4.5458,0,0,1-.7773-2.6436c5.122-50.3027,11.86-100.417,17.5586-150.6533,3.7207-32.8,7.6914-65.5713,11.5683-98.3545a20.19,20.19,0,0,1,1.6514-6.6035,3.527,3.527,0,0,1,1.1289-1.2461c3.1016-.2148,4.0312,2.4951,5.3525,4.33,29.1621,40.5127,58.6162,80.8154,87.8125,121.3027A28.2019,28.2019,0,0,1,1973.127,677.6113Z"/><path class="cls-20" d="M1657.53,1109.1465q-1.6054.0015-3.21.0019c-14.7383-3.3632-27.6445-11.1826-41.2959-17.1474-38.5019-16.8252-76.7314-34.2676-115.1289-51.333q-20.2427-8.9956-40.457-18.0557c-2.0518-.917-4.3574-1.7441-4.4483-4.6182.5723-2.623,2.628-4.0771,4.5557-5.5673,29.291-22.6358,58.417-45.4825,87.65-68.1914q16.623-12.9126,33.207-25.879c1.628-1.2763,3.084-2.9531,5.4483-2.8886a3.0481,3.0481,0,0,1,1.4668.6465c5.3388,9.9287,8.4755,20.7578,12.68,31.15,10.2032,25.2188,19.1827,50.9073,29.0762,76.251q15.2227,38.9971,29.8975,78.2168C1657.8535,1104.0752,1659.6152,1106.5117,1657.53,1109.1465Z"/><path class="cls-21" d="M1657.53,1109.1465c-2.834-10.5088-7.4463-20.3692-11.2149-30.5342-6.6318-17.8877-13.4443-35.71-20.2763-53.5225q-19.17-49.9789-38.4268-99.9257c-1.1279-2.9395-1.9766-5.9844-2.956-8.9805,3.0078-1.6709,6.2177-.9561,9.2773-.4971q78.9215,11.8419,157.8066,23.93a17.6459,17.6459,0,0,1,2.0557.458,6.9643,6.9643,0,0,1,3.0654,1.8028,3.3825,3.3825,0,0,1,.7188,1.5029c.1074,3.1826-1.6944,5.666-3.1875,8.2178q-44.2236,75.5316-88.3535,151.1181c-1.42,2.4336-2.9121,4.8252-5.3389,6.4307Z"/><path class="cls-22" d="M1939.5068,212.1812q.5317-.0007,1.0616-.001c2.3857,1.6479,2.9629,4.2563,3.5673,6.8208,8.8516,37.5869,18.211,75.0508,27.0987,112.6284,1.0469,4.4253,1.0527,9.0234,1.8984,13.4912q.0015,25.8831.002,51.7661c-3.125,2.0064-6.543,1.0025-9.7657.6738q-63.9975-6.53-128.0361-12.6411a79.4121,79.4121,0,0,1-8.333-1.2509c-4.708-2.5313-5.0527-3.3477-1.9287-7.9805,8.2539-12.2437,16.6807-24.3706,25.0947-36.5049,20.2344-29.18,40.291-58.4819,60.4717-87.6987,8.0918-11.7154,16.38-23.2969,24.2051-35.1953A10.1906,10.1906,0,0,1,1939.5068,212.1812Z"/><path class="cls-23" d="M1756.8018,943.6152v-1.0527a4.8166,4.8166,0,0,1,2.0039-2.3945c34.7607-17.0967,69.8779-33.4639,104.64-50.5664,6.2891-3.0938,12.7735-5.7911,19.0225-8.9834a7.8513,7.8513,0,0,1,5.0254-1.2051,2.4922,2.4922,0,0,1,1.3213.8769c-3.12,13.4405-6.2061,26.89-9.3682,40.32-3.9258,16.6757-7.835,33.3554-11.8926,49.999-5.4189,22.2265-11.4443,44.3164-16.34,66.6562-5.0547,23.0645-11.1387,45.8731-16.2647,68.9131a27.4313,27.4313,0,0,1-1.0127,2.9658q-5.8461.0015-11.6914.002c-2.8447-1.0684-3.5674-3.7227-4.5068-6.1563q-20.6895-53.5839-41.5488-107.1035c-5.7891-14.9-11.6543-29.77-17.3741-44.6972A29.3963,29.3963,0,0,1,1756.8018,943.6152Z"/><path class="cls-24" d="M1756.8018,943.6152c5.0566,7.5137,7.1386,16.3145,10.3955,24.5752,16.5742,42.04,32.8427,84.2022,49.2295,126.3164,1.9043,4.8936,3.8779,9.7608,5.8183,14.64q-43.5541.0894-87.1084.1631c-24.8125.0039-49.625-.1045-74.4365-.1631,5.2441-9.2188,10.4316-18.4707,15.7451-27.6494q16.5454-28.5792,33.211-57.0869c11.78-20.0967,23.7011-40.11,35.4912-60.2C1749.14,957.4082,1752.9229,950.4834,1756.8018,943.6152Z"/><path class="cls-25" d="M1825.4463,382.1c13.3926,1.3413,26.7822,2.7178,40.18,4.0107,8.708.84,17.4345,1.4869,26.14,2.35,12.6973,1.2584,25.3789,2.6783,38.0752,3.9454,12.01,1.1982,24.0244,2.3681,36.0518,3.3588a35.6358,35.6358,0,0,1,7.2422,1.1221q-.0045,8.4654-.01,16.9312a20.2747,20.2747,0,0,1-3.6963,7.458q-43.2655,58.3455-86.9267,116.3955c-1.7862,2.374-3.0274,5.84-7.1143,5.2876-2.4795-1.5752-2.9072-4.31-3.6924-6.7695-15.5683-48.836-32.0664-97.3687-47.7383-146.17a24.4634,24.4634,0,0,1-1.4853-6.12C1822.8594,382.3032,1823.416,380.979,1825.4463,382.1Z"/><path class="cls-26" d="M1453.7,1017.5c3.2666,5.2939,9.4277,5.6758,14.3076,7.9414,21.6543,10.0547,43.5762,19.5342,65.3936,29.2383q38.0214,16.9116,76.02,33.873c15.0195,6.7471,29.9365,13.7227,44.8994,20.5957q-46.5879.0865-93.1748.1612c-26.32.0029-52.6406-.1045-78.9609-.1631-2.4571-.9463-3.084-3.2129-3.7989-5.3682-8.7763-26.4482-17.9121-52.7793-26.1318-79.41-.5674-1.84-1.2012-3.6885-.5342-5.6543C1452.127,1017.8984,1452.6572,1017.2793,1453.7,1017.5Z"/><path class="cls-27" d="M1231.9648,1109.14c4.2911-4.7949,7.78-10.2822,12.627-14.5986,1.1992-2.4873,3.627-3.1738,5.9346-4.0244q46.8031-17.2543,93.6982-34.2588c32.2285-11.7685,64.4346-23.6035,96.7012-35.27,2.9355-1.0615,5.7656-2.7627,9.1152-2.0039,2.5235,2.3691.41,4.123-.9385,5.7666-10.8925,13.2676-21.6943,26.6113-32.624,39.8476q-16.2289,19.6539-32.3037,39.4287a14.817,14.817,0,0,1-6.4883,5.1221q-62.08.0864-124.16.1641C1246.3389,1109.3193,1239.1514,1109.2,1231.9648,1109.14Z"/><path class="cls-28" d="M1888.8145,880.29c-.3545-.0029-.7081-.0048-1.0616-.0078-10.5771-17.7509-20.6045-35.8164-30.7744-53.8-3.1894-5.6406-6.5586-11.1806-9.5928-16.9062-.8564-1.6153-2.3652-3.2442-.8183-5.2793,1.541-1.958,3.9492-2.1963,6.0615-2.9033q49.3155-16.4941,98.665-32.8926c7.293-2.4326,14.5557-4.959,21.8331-7.4424v32.7119a17.7589,17.7589,0,0,1-3.7959,5.6162c-23.0821,24.3154-46.8956,47.91-70.64,71.5723a43.8216,43.8216,0,0,0-7.4863,9.4394,1.0589,1.0589,0,0,1-1.34-.1084h-1.0507Z"/><path class="cls-29" d="M1377.6865,1109.1494q26.8419-32.7787,53.6983-65.5469c5.7568-7.0048,11.67-13.8837,17.5439-20.7929a5.1761,5.1761,0,0,0,1.6026-3.2012c-.0127-1.7822.8925-1.7344,2.1123-1.0586.5107,5.49,2.8388,10.5049,4.5009,15.6357,8.1192,25.0606,16.6534,49.9874,25.04,74.961Z"/><path class="cls-30" d="M1593.1152,133.0229c1.9541.1934,2.4385,1.7525,3.0371,3.23q17.6031,43.393,35.2227,86.7793,15.48,38.0112,31.0605,75.9815c.3692.9052,1.2911,1.789.3731,2.8808-1.8379,1.0093-3.4492.0464-4.9756-.7241-20.5566-10.3789-41.1133-20.7676-61.4619-31.5391-14.14-7.4843-28.8467-13.8584-42.6533-21.9814-1.83-1.0767-3.6748-2.0615-4.9688-3.8057l-.0049.001v-1.0566c8.3125-20.479,16.7686-40.9014,24.8916-61.4551C1580.0186,165.1841,1587.58,149.5112,1593.1152,133.0229Z"/><path class="cls-31" d="M1825.4463,382.1a2.038,2.038,0,0,0-2.1055,2.12,1.5433,1.5433,0,0,1-1.3838.1763,9.3232,9.3232,0,0,1-2.2636-1.9409c-7.6866-4.624-15.8311-8.3594-23.9034-12.2031-43.7666-20.8409-86.6953-43.3658-130.2754-64.5821a5.692,5.692,0,0,1-1.6757-1.2583,1.1558,1.1558,0,0,1,.03-1.4614q1.0533-.5281,2.1075-1.0557,68.3012-22.4993,136.5966-45.0156,66.7794-22.1235,133.4834-44.4712c1.1631-.3877,2.3008-.854,3.45-1.2837v1.0572q-37.0678,54.0145-74.1464,108.0209c-12.9219,18.7837-25.9913,37.4649-38.9014,56.2559C1825.3818,378.0264,1822.6318,379.6768,1825.4463,382.1Z"/><path class="cls-32" d="M1758.9131,941.502q-1.0546.53-2.1113,1.0605-1.0606-.5244-2.12-1.05c-10.9326-15.72-21.3437-31.792-32.1171-47.6211q-39.7545-58.4121-79.1368-117.0781a26.687,26.687,0,0,1-3.3242-6.5645,4.5971,4.5971,0,0,1-.0713-1.5332c4.3828-8.0215,9.7608-15.414,14.93-22.9209,25.9033-37.62,51.5283-75.43,77.2481-113.1748,3.8349-5.626,7.165-11.6738,12.2265-16.4111a3.097,3.097,0,0,1,1.5332-.2236c2.0664.624,2.9551,2.3828,3.86,4.0859q18.4131,34.6405,36.83,69.28c16.4873,30.9922,32.8789,62.0341,49.4912,92.96,3.4619,6.4453,7.3242,12.74,9.3623,19.8721v2.11c.1289,1.8653-.7471,3.3682-1.6885,4.876q-21.6095,34.6054-43.63,68.9492c-11.6455,18.169-22.7617,36.667-34.5127,54.7676A50.9007,50.9007,0,0,1,1758.9131,941.502Z"/><path class="cls-33" d="M1845.5137,802.1836c-5.7617-6.7764-8.6016-15.2256-12.8291-22.86-11.0362-19.9345-21.33-40.2783-32.0127-60.41q-26.4932-49.9321-53.0908-99.81a5.3619,5.3619,0,0,0-2.3965-2.6836,1.3735,1.3735,0,0,1-.0469-1.4922c6.5957-5.0156,14.1182-8.4795,21.3252-12.4375,32.9346-18.0839,65.79-36.31,98.7119-54.417,3.3213-1.8261,6.3916-5.2636,10.9609-3.4306l.01.0107c-1.1875,10.4131-2.3564,20.8281-3.57,31.2373q-1.8808,16.1324-3.832,32.2549c-1.6328,13.5225-3.3272,27.0381-4.9346,40.5635-1.2168,10.2353-2.3223,20.4834-3.5117,30.7226-1.1289,9.7178-2.3047,19.4307-3.4561,29.1465-1.3135,11.0967-2.5976,22.1973-3.9385,33.292q-2.9853,24.7032-6.0507,49.3985C1846.3955,794.9053,1846.9893,798.6729,1845.5137,802.1836Z"/><path class="cls-34" d="M1758.9131,941.502c3.3984-7.7374,8.5713-14.4209,13.0166-21.5157,23.3418-37.2549,46.9267-74.3584,70.4482-111.5.9307-1.47,2.086-2.7978,3.1358-4.1924.3515,0,.7021.001,1.0537.003,7.7314,13.8769,15.4053,27.7861,23.2129,41.62,5.8408,10.3506,11.8476,20.6074,17.8017,30.8945a3.3043,3.3043,0,0,1,.1709,3.4707c-7.1855,3.24-14.4453,6.3262-21.5429,9.7491-25.1436,12.1259-50.208,24.416-75.3516,36.5429C1780.2725,931.68,1769.5654,936.5332,1758.9131,941.502Z"/><path class="cls-35" d="M1640.63,769.4639c11.5722,17.3564,23.0674,34.7656,34.7334,52.06q38.5561,57.1582,77.17,114.2764c1.0693,1.59,3.9541,2.8975,2.1484,5.7129-13.7822-1.1162-27.3418-3.8193-41.0048-5.7813-17.8164-2.5595-35.6114-5.2753-53.4073-7.9746-17.1074-2.5947-34.2041-5.2588-51.3076-7.8818q-12.1494-1.8648-24.3056-3.6914c-.3516-.0029-.7042-.0059-1.0557-.0078v-1.0586c-.6856-2.4033.4121-4.49,1.2275-6.6055,13.0264-33.7978,26.2266-67.5293,39.3076-101.3056,4.128-10.6582,8.1036-21.375,12.3887-31.9707C1637.4141,773.0352,1637.8359,770.3682,1640.63,769.4639Z"/><path class="cls-36" d="M1876.1357,544.6426c-10.0185,3.5127-18.6484,9.7-27.9287,14.6211-14.875,7.8867-29.4257,16.3838-44.1582,24.5429q-26.2485,14.5358-52.5859,28.9112a64.8925,64.8925,0,0,1-6.2734,2.6435,2.3666,2.3666,0,0,1-.5284-1.5761c3.8584-13.6836,8.5313-27.1211,13.0547-40.584,20.4629-60.898,40.0274-122.0918,60.6065-182.9492.7588-2.2447.4306-5.4864,3.957-6.0313q.5318-.0008,1.0615-.001c3.3819,6.5723,5.08,13.7544,7.376,20.7071q19.935,60.3778,39.6768,120.8193c1.8486,5.6186,2.6582,11.5981,5.7421,16.7959Z"/></g><g class="cls-37"><path class="cls-38" d="M1292.1162-30.5757h46.4688c7.6591,2.9863,13.5468,8.6836,20.01,13.4146Q1388.98,5.0781,1419.1973,27.55q29.41,21.7889,59.02,43.3071c2.3789,1.731,5.1367,3.167,6.1728,6.2642a5.6672,5.6672,0,0,1,.1875,1.6152c-5.2519,17.7041-11.8388,34.9575-17.8252,52.4121-8.0439,23.4527-16.2334,46.8575-24.3838,70.2745-9.248,26.5722-18.3271,53.2036-27.6464,79.7519-.6407,1.8228-1.2247,3.6851-2.7168,5.0576a3.0784,3.0784,0,0,1-2.3321.5142c-4.6787-3.5952-7.3633-8.8428-10.6172-13.5127-27.0986-38.897-54.6953-77.4429-81.7968-116.336-1.5108-2.1679-3.0733-4.2885-3.6758-6.9394-2.7031-12.0386-3.6758-24.3232-5.2627-36.51-4.4932-34.5156-8.8174-69.0527-13.3164-103.5678-1.4776-11.33-2.6944-22.6934-4.2793-34.01C1290.4023-26.4385,1290.3271-28.7129,1292.1162-30.5757Z"/><path class="cls-39" d="M1099.9053-30.5757h39.0761c8.6309,5.3823,14.7881,13.3936,21.753,20.5386,1.4629,1.5,2.6445,3.2856,4.1679,4.7549,21.65,20.8847,42.127,42.9248,63.168,64.4062,22.8809,23.36,45.4443,47.0342,68.3486,70.377,5.0362,5.1328,9.7657,10.5923,14.7793,15.7744,1.587,1.64,3.72,3.3286,2.9131,6.2339a4.0052,4.0052,0,0,1-1.56.8042c-10.0586.62-19.9727-1.0684-29.9229-1.8989-19.0732-1.5923-38.15-3.1529-57.2148-4.8379-22.9161-2.0254-45.84-3.9537-68.7569-5.9634-18.1924-1.5957-36.3965-3.0664-54.5957-4.5918-12.7705-1.07-25.5713-1.8218-38.2685-3.6631a4.4606,4.4606,0,0,1-2.69-.8623,2.5025,2.5025,0,0,1-.8652-1.5806c.8535-11.2719,4.6318-21.9267,7.2588-32.8076q14.3862-59.5788,29.1787-119.06C1097.3477-25.65,1097.6758-28.5239,1099.9053-30.5757Z"/><path class="cls-40" d="M1099.9053-30.5757c-1.1944,9.7666-4.3262,19.0938-6.6143,28.6055-8.0195,33.3393-16.2588,66.6255-24.4707,99.918-2.5439,10.3144-4.47,20.791-7.9912,30.8535-.2549-.0215-.5107-.0435-.7666-.0611-2.8008-1.1294-4.2158-3.6318-5.8057-5.9311C1024.0615,79.123,993.4063,35.7578,962.9932-7.7764c-1.8994-2.7187-4.1294-5.352-3.6065-9.059,2.74-5.1929,5.8106-10.1382,10.6182-13.74Z"/><path class="cls-41" d="M1314.2939,150.96c.3526.0005.7041.0015,1.0567.002,9.7705,14.1279,19.4668,28.3091,29.331,42.3716,14.8018,21.1,29.8663,42.0171,44.5284,63.2134,6.7724,9.791,14.4609,18.97,20.1338,29.5112a3.02,3.02,0,0,1-1.3946,1.0117c-2.3515.6255-4.5137-.2783-6.7041-.8745-57.5224-15.6479-114.958-31.6118-172.4883-47.2329-10.1474-2.7554-20.5263-4.8818-30.2861-8.9883a2.6074,2.6074,0,0,1-.9111-1.3237c-.1065-3.0025,2.2675-4.2461,4.2617-5.5171,35.51-22.6318,70.4932-46.0742,105.9531-68.7837,2.0879-1.3369,4.4619-2.0347,6.5156-3.3838Z"/><path class="cls-42" d="M1408.2861,286.07l1.0577-.0117q1.0531-.0015,2.1064-.0034c.0039.355.0068.71.0107,1.0654,1.4629,1.4673,1.7764,3.3638,2.0332,5.3023,6.42,48.5908,13.0059,97.16,19.1289,145.79a17.8281,17.8281,0,0,1,.1485,5.771,4.5312,4.5312,0,0,1-.87,1.7388,4.6932,4.6932,0,0,1-2.6162,1.2119c-23.8057,3.5947-47.8184,5.4238-71.7227,8.2q-28.5557,3.3164-57.1084,6.6718a14.8283,14.8283,0,0,1-4.72-.0581c-4.4483-1.35-2.9434-4.0332-1.27-6.478,3.5762-5.2217,7.043-10.5161,10.6036-15.7466,30.8632-45.33,61.872-90.56,92.51-136.0429C1401.3857,297.8286,1406.2373,292.8066,1408.2861,286.07Z"/><path class="cls-43" d="M1060.8291,128.8013v1.0522c1.9951,2.2075,1.084,4.6182.44,6.9746-10.0722,36.918-20.0049,73.8745-30.27,110.74-2.1182,7.6074-3.7324,15.3564-6.3643,22.8213a4.5136,4.5136,0,0,1-2.2548,3.4409,2.5558,2.5558,0,0,1-1.6036-.0781,21.5085,21.5085,0,0,0-7.5107-6.418c-42.7705-24.4263-85.2651-49.33-127.7793-74.1978-18.3726-10.7466-36.8633-21.2885-55.167-32.15-2.0552-1.2192-6.0942-1.99-3.146-6.0683,7.1538-2.8208,14.8067-2.6656,22.2481-3.58,27.0239-3.3223,54.0986-6.2324,81.1591-9.2412,36.4917-4.0571,72.9458-8.45,109.4624-12.2857,4.5362-.4765,9.1-.8105,13.6045-1.6089,2.4268-.43,4.8868-.8144,7.18.5894Z"/><path class="cls-44" d="M1022.8125,270.2285c5.5264-19.9033,11.0967-39.7949,16.5693-59.7129q10.4385-37.9914,20.73-76.0234a40.595,40.595,0,0,0,.7168-4.6387q1.0592.0037,2.1162.0069c5.6221,1.5009,9.7539,5.4985,14.2393,8.7836,28.1045,20.5791,55.9717,41.48,84.0976,62.0284,10.086,7.3681,20.2256,14.6665,30.2832,22.0756,2.0694,1.5245,4.5909,2.8013,4.8867,5.8687a2.2822,2.2822,0,0,1-.9375,1.3433c-16.622,5.2822-33.7705,8.4546-50.6728,12.5932-34.6953,8.4947-69.4229,16.8648-104.12,25.357-4.1035,1.0044-8.2158,1.9628-12.3574,2.7919C1026.4834,271.0791,1024.5527,271.6655,1022.8125,270.2285Z"/><path class="cls-45" d="M1196.0107,228.0122q-31.5542-23.15-63.0976-46.311-35.0376-25.8493-69.9678-51.8408,23.2413,2.0024,46.4824,4c9.4092.8,18.8252,1.52,28.2334,2.3335,15.32,1.3247,30.6348,2.7153,45.9551,4.04,9.2324.7988,18.4746,1.5039,27.709,2.29,15.8457,1.3487,31.6855,2.7622,47.5332,4.0821,9.76.813,19.5312,1.4878,29.2949,2.2524,8.7139.6826,17.4248,1.4038,26.1367,2.1084-2.26,3.6328-6.2724,4.8843-9.6035,7.062q-42.621,27.8607-85.2344,55.7324c-7.1523,4.6851-14.7724,8.6753-21.3291,14.2515A1.4238,1.4238,0,0,1,1196.0107,228.0122Z"/><path class="cls-46" d="M1060.8281,128.7915c-10.7412,2.606-21.7949,2.792-32.6914,4.1968-14.0146,1.8061-28.0537,3.4243-42.0918,5.0376-10.5781,1.2158-21.1767,2.2519-31.7573,3.4468-14.3882,1.6245-28.7642,3.3613-43.1533,4.9794-10.7549,1.2095-21.5279,2.253-32.2818,3.4693-13.6967,1.5488-27.396,3.0908-41.0629,4.8716-3.8013.4956-7.7613-.1792-11.4126,1.45a1.6644,1.6644,0,0,1-2.13.2519,2.1886,2.1886,0,0,1-.4131-1.4468c5.7412-8.8408,12.6186-16.8344,19.1118-25.103,11.7124-14.9136,23.5235-29.751,35.229-44.6709,22.7593-29.0078,45.4815-58.0449,68.5191-86.833,2.5254-3.1558,4.8623-6.4521,7.3584-9.6284,1.1762-1.4971,2.1464-3.2832,4.3408-3.5557q1.0531-1.0562,2.1069-2.1123c-.271,3.3159,1.9038,5.6045,3.5776,8.0015Q994.3306,34.48,1024.709,77.7271C1036.6953,94.7861,1048.7852,111.7725,1060.8281,128.7915Z"/><path class="cls-47" d="M823.2114,155.1816c-4.1816-10.2568-10.2217-19.5488-15.3828-29.292-8.4521-15.957-17.4487-31.6254-26.1689-47.4418q-22.8618-41.4639-45.647-82.9707A31.4838,31.4838,0,0,1,734.49-8.4067c2.1221-.295,4.4688.7514,6.3374-1.0591,17.7149-.1582,35.4336-.7818,53.1231-1.374,12.7973-.4288,25.6484.28,38.3652-.9024,13.6934-1.2734,27.4155.1616,41.0034-1.0913,12.65-1.1665,25.3018.15,37.8467-1.01,13.5152-1.2509,27.0015-.5209,40.4922-.9443a55.7041,55.7041,0,0,0,6.7266-1.01q.0036.5274.0078,1.0552c-12.5943,17.4434-26.3989,33.9409-39.72,50.8164C909.356,47.875,900.19,59.7954,890.8911,71.61q-26.759,33.9968-53.6011,67.9287c-4.2109,5.3276-7.666,11.2885-13.0278,15.6616A.6392.6392,0,0,1,823.2114,155.1816Z"/><path class="cls-48" d="M1231.9648,1109.14q-46.8412.0924-93.6826.1739c-11.7519.01-23.5039-.1084-35.2558-.169-2.49-1.0107-2.93-3.3476-3.46-5.542-3.085-12.7627-6.7383-25.39-9.2109-38.3a8.1556,8.1556,0,0,1-.0547-3.3886c8.3662-23.1309,17.51-45.9717,26.3183-68.9395,6.48-16.8975,12.9375-33.8057,19.6407-50.62a5.1581,5.1581,0,0,1,1.2881-2.1387,4.0078,4.0078,0,0,1,1.5273-.6933c12.165-3.4405,23.98-7.9278,35.9482-11.9659,36.76-12.4013,73.4366-25.0468,110.1836-37.4873,12.4688-4.2207,24.8555-8.6923,37.38-12.7509,2.4483-.793,4.9258-2.1329,7.5879-.59,1.9775,3.0957-.0185,5.7744-1.0576,8.44-12.2578,31.4249-25.0195,62.6514-37.3574,94.045-14.1387,35.9726-28.6416,71.7978-42.9073,107.72-.9726,2.4492-2.1171,4.8213-3.0712,7.2734C1241.6006,1099.5723,1238.4131,1105.8643,1231.9648,1109.14Z"/><path class="cls-49" d="M1075.624,1109.1465c-20.709.0586-41.417.1719-62.126.164q-52.9144-.0219-105.8305-.163a8.2188,8.2188,0,0,1-4.2427-3.7207c-8.3706-14.3936-17.1475-28.5479-25.4092-43.0049-1.3779-2.4112-3.12-5.0674.6314-7.1446,6.3149-.9531,12.5786.3819,18.8847.3467,32.1128-.18,64.1812,1.7989,96.2906,2.2705,24.1914.3555,48.374,1.8594,72.5879,1.8633,6.5029.001,12.915,1.3135,19.4287,1.251,1.9062-.0186,3.8916.3906,4.9267,2.41a12.3973,12.3973,0,0,1-.2724,7.2344c-3.6592,11.542-7.4649,23.0332-11.793,34.3467A8.222,8.222,0,0,1,1075.624,1109.1465Z"/><path class="cls-50" d="M727.1519,1109.1436c5.5761-2.09,11.1059-4.3125,16.7353-6.2461q42.1289-14.4713,84.2988-28.8233,23.9268-8.1914,47.8228-16.47c1.3218,2.0312.5727,4.0781-.0317,6.0771-4.0694,13.4532-8.0816,26.9248-12.4361,40.2911-.666,2.0439-1.4516,3.9638-3.3677,5.1738q-64.14.0879-128.28.168C730.313,1109.3164,728.7324,1109.2031,727.1519,1109.1436Z"/><path class="cls-51" d="M860.1733,1109.1465q7.9176-25.7711,15.8355-51.542.0029-.5274.0054-1.0547.2636-.2022.5278-.4023c.1763.1338.352.2685.5283.4023,3.7153,8.5273,8.9443,16.2012,13.6587,24.1641q8.4309,14.24,16.9385,28.4336Q883.92,1109.146,860.1733,1109.1465Z"/><path class="cls-52" d="M1075.624,1109.1465q7.3872-22.0767,14.7764-44.1533.5274-.9741,1.0557,0,5.2777,20.606,10.5664,41.21c.2578,1.001.666,1.9619,1.0039,2.9414Q1089.3257,1109.146,1075.624,1109.1465Z"/><path class="cls-53" d="M1431.5215,444.3818c-2.0186-15.0356-4.0918-30.0639-6.041-45.1089-1.9278-14.8784-3.6709-29.7807-5.6055-44.6582-1.8887-14.5278-4.123-29.0136-5.8027-43.5649-.919-7.9673-2.9131-15.8291-2.6114-23.9292q32.8213-10.325,65.6426-20.6528,35.8257-11.294,71.6406-22.6226c.13.228.26.4556.3916.6821a3.6684,3.6684,0,0,1-.2334,1.5313q-16.5747,29.0353-33.3916,57.9375-38.8476,66.6555-77.3144,133.5312c-1.4668,2.5479-2.5635,5.4336-5.2275,7.1373A1.5015,1.5015,0,0,1,1431.5215,444.3818Z"/><path class="cls-54" d="M1292.123,461.2764c-1.3828-8.0406-5.2626-15.1973-8.27-22.63-11.2285-27.7632-22.7715-55.4-34.1748-83.0933q-24.7089-60.0095-49.37-120.0381c-.8613-2.0966-1.4629-4.3-2.1856-6.4536,17.003,3.5879,33.5391,8.9248,50.2813,13.48q78.4365,21.3376,156.7852,43.001a30.677,30.677,0,0,0,3.0966.5283c1.8067,1.3994,1.4092,2.7861.253,4.479q-21.3589,31.2825-42.628,62.6255-14.9531,21.9573-29.9629,43.8765-20.4873,29.9568-40.9736,59.9135c-.6318.9263-1.7881,1.8824-.7412,3.2554.37.8853-.1445,1.2808-.8652,1.5625A1.4741,1.4741,0,0,1,1292.123,461.2764Z"/><path class="cls-55" d="M1431.5215,444.3818l1.0566-.0014c2.5313-2.086,5.5342-2.8208,8.708-3.3741,48.4981-8.4516,96.8946-17.4594,145.3252-26.2836,2.4219-.4414,4.7686-1.2168,7.22-1.5464a2.9374,2.9374,0,0,1,1.7783.59,5.0621,5.0621,0,0,1,1.1279,3.59c-2.3789,26.21-5.6377,52.3282-8.51,78.4874-3.6943,33.6567-7.6562,67.2841-11.1445,100.9648-1.0635,10.2607-1.6133,20.6221-4.3877,30.6416-3.4609,2.2988-4.6953-.999-6.1631-2.7588-7.7734-9.3242-14.872-19.18-22.1924-28.8545-36.7177-48.5273-73.8076-96.7724-110.5293-145.2969-1.1552-1.5273-2.6269-2.9165-2.2939-5.1123C1431.5186,445.0791,1431.52,444.7305,1431.5215,444.3818Z"/><path class="cls-56" d="M1431.5166,445.4277q20.4287,26.6338,40.8535,53.2715,38.8653,50.84,77.6768,101.7217c6.999,9.1738,13.9228,18.4043,20.88,27.6084a2.665,2.665,0,0,1-1.376.8809c-6.9473-.6622-13.0713-3.9414-19.417-6.378-75.1582-28.8515-150.4981-57.23-225.7022-85.9609a61.9,61.9,0,0,1-7.29-3.05,7.915,7.915,0,0,1-2.6777-1.7359,2.4652,2.4652,0,0,1-.6582-1.4126,3.3606,3.3606,0,0,1,.4775-1.4648c11.208-9.6274,23.5742-17.7241,35.4717-26.436q35.94-26.3152,71.9648-52.5161a66.21,66.21,0,0,1,7.6846-4.5132Q1430.46,445.4348,1431.5166,445.4277Z"/><path class="cls-57" d="M1429.4043,445.4429c-5.6152,6.1338-12.9092,10.1089-19.4971,14.97-25.081,18.51-50.3105,36.8184-75.5136,55.1631-6.6475,4.8384-13.3965,9.5361-20.1,14.2983-2.4834-1.28-2.9736-3.8174-3.6611-6.1177-5.623-18.7983-11.5644-37.5-17.0918-56.3271-.5947-2.0288-1.2471-4.041-.3633-6.1509q.5274-.53,1.0557-1.0581c11.0967-1.18,22.1982-2.3188,33.2891-3.5508,11.0869-1.2319,22.16-2.5825,33.2451-3.834q22.6011-2.5516,45.2129-5.0219C1413.7822,446.9653,1421.5957,446.23,1429.4043,445.4429Z"/><path class="cls-58" d="M1663.8691,302.95v1.0566c.9131,2.3716-.7031,4.0606-1.7539,5.77-20.5966,33.5166-41.5107,66.8378-61.9687,100.44-.9082,1.4922-1.8135,3.0308-3.4873,3.854a1.5019,1.5019,0,0,1-1.4414-.2959l-1.0508-.0059c-2.3311-1.5009-2.5742-4.0883-3.22-6.4057-12.58-45.127-24.63-90.3985-37.0537-135.5679-1.7676-6.4287-3.4893-12.87-5.2881-19.29-.708-2.5308-1.5557-5.0982.1328-7.6021q.0059-.53.0107-1.0586c4.586.979,8.1358,4.0259,12.1807,6.086q29.59,15.07,59.1933,30.1084,21.3633,10.89,42.6856,21.8559Q1663.3389,302.4226,1663.8691,302.95Z"/><path class="cls-59" d="M1452.6436,1018.55q-1.0562.53-2.1123,1.0586c-21.1534,7.59-42.33,15.1162-63.4542,22.7861-20.3037,7.3721-40.5439,14.918-60.8281,22.3418q-40.8164,14.937-81.6572,29.8047c2.7764-10.5527,7.6025-20.334,11.5889-30.4238q32.2119-81.5259,64.666-162.9561c3.1709-7.9853,6.8506-15.7744,9.289-24.0429a1.1306,1.1306,0,0,1,.3555-1.5928,4.5977,4.5977,0,0,1,1.7344-.6289c11.7832.6914,23.291,3.33,34.915,5.1191,58.5244,9.0039,117.0039,18.3037,175.4942,27.5283,13.0107,2.0528,26.0556,3.8819,39.0273,6.1944a4.1455,4.1455,0,0,1,1.6719.7822,1.2461,1.2461,0,0,1,.2666,1.6553q-64.9512,50.6616-129.9,101.3242Q1453.1715,1018.0259,1452.6436,1018.55Z"/><path class="cls-60" d="M1091.4561,1064.9932H1090.4c-.2979-1.79-1.5791-2.2246-3.1055-2.085-7.2217.6572-14.3047-1.2959-21.5029-1.0889-21.07.6084-42.1094-.9345-63.1572-1.3759-12.96-.2715-25.958-.0782-38.9092-.7813q-37.566-2.04-75.1758-2.0791c-3.8452-.0029-7.5713-1.5762-11.48-1.0332h-.0054c-1.248-2.1914-.06-4.0068.8926-5.8682,15.8252-30.9267,32.3179-61.5039,48.2-92.4033,9.461-18.4062,18.8589-36.86,28.8584-54.99a14.8778,14.8778,0,0,1,2.606-3.9356,2.4867,2.4867,0,0,1,1.4722-.581,4.3034,4.3034,0,0,1,2.1845.876c8.99,10.5576,17.6553,21.3886,26.3955,32.1611,19.59,24.1426,38.94,48.4785,58.52,72.63q21.9007,27.016,43.667,54.1386a5.9014,5.9014,0,0,1,1.5957,3.252Z"/><path class="cls-61" d="M960.5005,900.3408l-1.0591-1.06c-.8252-2.5977,1.2065-3.9073,2.6357-5.2647,19.3741-18.3935,37.9512-37.6113,57.6348-55.6836.6485-.5947,1.3047-1.1816,1.917-1.8125,21.294-21.9736,43.9024-42.6084,65.5635-64.2148,8.93-8.9072,17.95-17.8076,27.5742-26.04a2.2,2.2,0,0,1,3,1.0313c2.47,10.4512,2.8564,21.1758,4.0938,31.7822,3.5361,30.3125,6.6123,60.6758,10.1337,90.9912q3.5831,30.8335,6.7325,61.7178c.2959,2.8623,1.2353,5.9424-.7969,8.6592q-.0015,1.0562-.0049,2.1142c-2.1582,1.4834-4.4072.7364-6.6152.2149-32.8526-7.7578-65.6621-15.6953-98.4805-23.5967-20.8535-5.0215-41.7451-9.8818-62.5693-15.0234A33.4806,33.4806,0,0,1,960.5005,900.3408Z"/><path class="cls-62" d="M1330.1357,876.0654v1.0528c-11.31,2.57-22.0722,6.8711-33.0253,10.5439-26.2627,8.8057-52.4434,17.8574-78.6514,26.8272q-37.0708,12.687-74.15,25.3535c-1.6445.5576-3.3545,2.27-5.3272.6054-.4619-2.3808.3965-4.4707,1.44-6.5214,3.8262-7.5166,7.1885-15.2647,10.9707-22.7911,15.0674-29.9892,29.4453-60.3154,44.4688-90.3271,7.3886-14.7627,14.4072-29.72,21.8281-44.4736,1.0947-2.1778,1.9365-4.5586,4.0859-6.0362a3.2552,3.2552,0,0,1,1.5127-.3271c3.8975,1.7715,6.94,4.69,9.9385,7.6211,5.7705,5.6406,11.5078,11.3183,17.13,17.1064,24.6914,25.416,50.8242,49.37,75.6767,74.6192C1327.8721,871.1875,1330.7871,872.6025,1330.1357,876.0654Z"/><path class="cls-63" d="M960.5005,900.3408c13.647,3.1553,27.312,6.2305,40.936,9.48q66.2213,15.797,132.4151,31.6983c1.3623.3271,2.7158.6933,4.0732,1.041q-22.6875,58.7637-45.3916,117.5195a11.0561,11.0561,0,0,1-1.0771,1.75c-7.3409-6.59-12.7842-14.8135-19.0049-22.3486-15.4932-18.7676-30.6367-37.8242-45.8965-56.7842q-14.9868-18.6181-29.9082-37.2891Q978.5747,922.8736,960.5005,900.3408Z"/><path class="cls-64" d="M1222.4131,770.5146q-24.0937,48.69-48.166,97.3907c-11.8594,24.13-23.5176,48.3584-35.2657,72.5429q-.5257.0015-1.0517-.0019-2.6352-23.1519-5.2774-46.3037c-2.0615-17.86-4.2578-35.7061-6.2128-53.5781-1.5957-14.5811-2.8047-29.2051-4.4043-43.7862-1.56-14.2256-3.4375-28.416-5.0752-42.6338-.3-2.6045-.1172-5.2636-.1573-7.8984q.2916-.3193.5791-.6436c2.3828-1.38,4.8-.5947,7.1787-.0429,29.295,6.789,58.6729,13.2177,87.9483,20.0937a22.2482,22.2482,0,0,0,8.3467.8076,4.0732,4.0732,0,0,1,2.4443.5127C1224.5059,768.5273,1223.3369,769.49,1222.4131,770.5146Z"/><path class="cls-65" d="M1548.7383,244.9028c4.418,16.5713,8.77,33.1612,13.2666,49.711q15.7734,58.0437,31.6445,116.06a30.1813,30.1813,0,0,1,.5176,3.0947c-3.9609,4.0108-9.4482,3.0664-14.208,3.9664-42.1983,7.978-84.458,15.6367-126.71,23.332-6.8633,1.25-13.7793,2.2158-20.6709,3.313,9.9258-17.3584,19.8037-34.7447,29.79-52.0684q19.1822-33.2754,38.5058-66.47,22.7183-39.1333,45.4639-78.2495A5.6558,5.6558,0,0,1,1548.7383,244.9028Z"/><path class="cls-66" d="M1223.47,767.3535l-2.1074-.0058c-2.6182-2.0967-2.5967-5.2657-3.1709-8.128q-12.13-60.4423-24.2119-120.8945c-1.6377-8.26-4.1074-16.3623-4.793-24.8057a5.2138,5.2138,0,0,1,.4873-3.42v-.0156q1.0561-.5244,2.1123-1.05c6.7159-6.5576,15.0313-10.8672,22.79-15.9072,30.7412-19.97,61.6084-39.7461,92.2861-59.8145,2.1719-1.4209,4.1553-4.1079,7.4268-2.3789l.0048-.0039c1.2608,2.7427-.1015,5.1694-1.039,7.5762q-43.3564,111.2636-85.8477,222.8623C1226.54,763.6309,1225.9736,766.1426,1223.47,767.3535Z"/><path class="cls-67" d="M1314.2891,530.9336c-3.5215.8613-6.05,3.4268-8.96,5.3052q-55.38,35.74-110.709,71.56a18.5352,18.5352,0,0,1-2.834,1.2354c10.5791-15.6787,21.0889-31.4033,31.75-47.0244q32.8711-48.1649,65.86-96.2486c.9863-1.4424,1.8213-2.9878,2.7265-4.4853q.5274-.0037,1.0547.0019,8.9751,29.0317,17.9463,58.0645c1.0821,3.5029,2.1153,7.021,3.17,10.5317Q1314.2925,530.4042,1314.2891,530.9336Z"/><path class="cls-68" d="M1822.2793,384.2207c-8.4375,25.1172-16.9844,50.1987-25.2881,75.3608-11.3935,34.5279-22.5762,69.1255-33.9053,103.6753-4.9775,15.1817-10.0752,30.3243-15.1679,45.4688-.66,1.9619-.9073,4.1738-2.7334,5.5859-3.1328.2608-3.9932-2.4961-5.3838-4.2949-23.416-30.2969-46.0039-61.2207-69.1875-91.6934s-46.0488-61.186-69.2813-91.622a48.0364,48.0364,0,0,1-6.1142-9.7676v-3.1587l1.0508-.0044c13.9677-3.71,28.3652-4.8437,42.5839-7.0249,56.2881-8.6357,112.6817-16.5566,168.9971-25.0107,4.4317-.6656,8.9912-2.2637,13.374.374Q1821.751,383.165,1822.2793,384.2207Z"/><path class="cls-69" d="M1595.2178,416.9336c7.2617,7.1753,12.6084,15.8633,18.7275,23.9253q46.5381,61.3118,92.7686,122.8569c12.77,16.9053,25.6435,33.7324,38.4707,50.5957,0,.35.0019.7.0049,1.05q-.003.5289-.0049,1.0586v.002c-4.378,2.9863-9.5528,2.249-14.34,2.6416-15.75,1.291-31.5224,2.3457-47.2773,3.5928-21.3555,1.69-42.7246,3.21-64.084,4.85-15.3955,1.1806-30.7705,2.7675-46.2246,3.123a8.9036,8.9036,0,0,1-1.9063-.3857c-.9082-.4541-1.6806-1.003-1.4814-2.2041q.5287-.0045,1.0557-.01c1.0537-6.8486,2.3086-13.6729,3.123-20.55,2.1563-18.2041,3.8584-36.457,5.98-54.668q2.5137-21.5771,4.6767-43.2378c1.44-14.2412,3.292-28.44,4.9112-42.6635,1.205-10.586,2.3105-21.1831,3.4882-31.772C1593.7822,429.0669,1594.5117,423.0015,1595.2178,416.9336Z"/><path class="cls-70" d="M1223.47,767.3535q12.5112-32.9,25.0323-65.7969,19.6421-51.2826,39.3935-102.5253,13.1338-34.0767,26.3984-68.1016,1.0592.5236,2.1172,1.0478c6.0118,8.4947,10.3594,17.9424,15.2393,27.0625,27.9287,52.1914,56.05,104.2813,83.8154,156.5606,2.9658,5.584,5.9483,11.1611,8.8692,16.77.9619,1.8467,2.249,3.6582,1.2207,5.9375a4.5408,4.5408,0,0,1-1.9356,1.7256c-12.5937,3.4795-25.6152,4.5488-38.4472,6.5928q-56.5622,9.01-113.1807,17.6718c-14.0869,2.1328-28.0879,4.83-42.2549,6.4561a17.2761,17.2761,0,0,1-6.2676-.2383c-.3525-.001-.7041-.002-1.0566-.002Q1222.9419,768.9341,1223.47,767.3535Z"/><path class="cls-59" d="M1425.1846,737.8c-8.7256-16.6133-17.3985-33.2549-26.1973-49.8291-5.9258-11.1621-12.0674-22.208-18.0508-33.34q-30.7939-57.2886-61.4834-114.6343c-1.3261-2.4839-3.6162-4.7554-3.042-8.0191,16.7559,6.271,33.5342,12.4844,50.2637,18.8243q47.2558,17.9091,94.4648,35.9375,44.2647,16.8809,88.5079,33.8193c6.7158,2.5605,13.4814,4.99,20.2236,7.4805l1.0566,1.0537c.7,2.5107-1.3818,3.4277-2.8066,4.5078q-69.0849,52.3638-138.6553,104.0869a5.6977,5.6977,0,0,1-2.9433.8105A2.453,2.453,0,0,1,1425.1846,737.8Z"/><path class="cls-71" d="M1821.2236,382.1089c-11.7275.6719-23.1982,3.2275-34.8047,4.7934-18.0195,2.4307-35.9892,5.2212-53.9794,7.8653q-23.0948,3.3933-46.1875,6.7993-27.2418,4.0056-54.4864,8.0078c-10.3779,1.5347-20.7529,3.083-31.1142,4.7246-1.583.251-3.0684.9258-4.3828-.5288q19.6566-32.0772,39.3232-64.1475c9.377-15.2358,18.8486-30.413,28.2773-45.6162,2.6377-.2041,4.6973,1.3047,6.8721,2.39q58.2553,29.0764,116.499,58.1767c9.7422,4.854,19.6084,9.458,29.3985,14.2168C1818.3447,379.6191,1820.3213,380.1421,1821.2236,382.1089Z"/><path class="cls-72" d="M1425.1846,737.8h1.0566c7.47,5.4434,12.7334,13.01,18.7774,19.7891q18.5844,20.8461,37.0976,41.7578,18.6387,21.1552,37.4111,42.19,22.26,24.9888,44.38,50.1016c5.6719,6.4746,11.42,12.8828,17.1114,19.3408,1.0058,1.1416,2.3271,2.2812,1.5253,4.1377-10.67-.69-21.1347-2.8535-31.6748-4.458-19.7021-3-39.3828-6.1416-59.0644-9.2656-21.4131-3.3995-42.8057-6.93-64.23-10.251-21.7685-3.374-43.5762-6.503-65.3476-9.8574-10.3672-1.5977-20.6914-3.4717-31.0352-5.22-1.0039-2.8115.915-4.6806,2.2705-6.6425q42.0615-60.8732,83.7559-121.9991a45.7613,45.7613,0,0,1,6.9111-8.5761Q1424.6563,738.3247,1425.1846,737.8Z"/><path class="cls-73" d="M1582.5439,915.1172q-13.7241-15.5625-27.4472-31.127-18.923-21.4863-37.84-42.9775c-9.0566-10.2334-18.2353-20.3584-27.3037-30.5811-13.1328-14.8046-26.1885-29.6757-39.3281-44.4746q-9.9464-11.203-20.0908-22.2314c-1.6778-1.8272-3.3672-3.582-4.293-5.9258q1.0562-.5274,2.1123-1.0557c29.63,3.5381,59.0654,8.43,88.59,12.7051q57.35,8.3028,114.663,16.8653a29.2136,29.2136,0,0,1,7.6143,1.9589,4.5334,4.5334,0,0,1,1.4092,1.19q-27.04,69.7793-54.1026,139.55c-.8134,2.0967-1.9443,4.0722-2.9267,6.1035Z"/><path class="cls-74" d="M1424.1289,738.8477c.2158,3.3711-2.6641,5.0048-4.2383,7.3212q-21.1451,31.1148-42.4668,62.11-21.3031,30.999-42.7011,61.9326c-1.2891,1.874-2.3594,3.8994-3.5313,5.8535h-1.0557c-11.9716-12.5888-23.8906-25.23-37.0351-36.64-2.1192-1.84-4.05-3.8994-6.0391-5.8858-18.2812-18.2617-36.6123-36.4736-54.7754-54.8515-2.833-2.8662-6.8066-4.4619-8.8164-8.1719,7.2129-2.9658,15.03-2.7109,22.54-4.05,16.8476-3.0039,33.8281-5.2617,50.7451-7.8828q29.2559-4.5322,58.4931-9.1777c14.3194-2.2793,28.6094-4.7383,42.9356-6.97C1406.81,741.0938,1415.48,740.0342,1424.1289,738.8477Z"/><path class="cls-75" d="M1116.8027,746.2441q21.6006-39.5023,43.1944-79.0087,13.746-25.1969,27.3945-50.4483c.9082-1.67,1.3633-3.68,3.333-4.583,2.9736,15.0664,5.9121,30.1406,8.9268,45.1992q10.7988,53.9268,21.64,107.8438a12.4033,12.4033,0,0,1,.0713,2.1006c-.459,2.7509-2.2734,1.4384-3.6318,1.1386-11.4473-2.5234-22.8955-5.0439-34.3233-7.6552-20.6386-4.7178-41.26-9.5127-61.9-14.2207A31.125,31.125,0,0,0,1116.8027,746.2441Z"/><path class="cls-76" d="M1640.63,769.4639h-1.0557c-2.9707-2.2119-4.2431-5.5645-5.5771-8.7676-2.9033-6.9727-6.3975-13.6524-9.7627-20.3955q-25.9527-52.002-51.1543-104.37c-1.0244-2.1172-2.791-4.2344-1.0967-6.8379,16.7246-1.3682,33.4473-2.7647,50.1758-4.0928,10.1142-.8027,20.2285-1.63,30.3564-2.2148,17.81-1.03,35.5762-2.5293,53.3457-4.0889,13.0733-1.1484,26.2129-1.544,39.3233-2.2744q-36.7852,54.05-73.5821,108.0908C1661.3486,739.5449,1650.958,754.4834,1640.63,769.4639Z"/><path class="cls-77" d="M1571.9834,629.0928c3.4014,7.4961,6.6035,15.09,10.2363,22.4707,16.52,33.5635,33.1973,67.0488,49.7237,100.6084,2.78,5.6474,5.0986,11.5224,7.6308,17.292-31.4482-4.6026-62.9053-9.1426-94.3418-13.8233-32.1269-4.7842-64.2314-9.7207-96.3515-14.5556q-8.2881-1.2482-16.6211-2.1944c-1.6836-.1943-3.1065-.51-3.9063-2.1455q57.2256-42.8569,114.4317-85.7392c9.5039-7.1407,18.7685-14.6,28.1425-21.9131C1571.2793,629.0918,1571.6318,629.0918,1571.9834,629.0928Z"/></g><g class="cls-78"><path class="cls-79" d="M570.7979-30.5757H629.94c2.1152,1.8218,2.8208,4.3906,3.622,6.896,11.5513,36.1182,22.9956,72.2705,34.7066,108.3369.812,2.5,1.6811,5.04.45,7.6929-2.2662,2.9868-5.6006,2.6079-8.7022,2.606-16.6816-.0083-33.3491-.1861-50.0347-.8277-20.3579-.7822-40.7685-.1059-61.1552-.2275-7.89-.0474-15.8086.6787-23.66-.5528a4.9186,4.9186,0,0,1-1.6313-.8149c-1.8233-2.3682-.6094-4.6978.21-6.9731,4.8277-13.4024,10.38-26.5249,15.5835-39.7813,9.0586-23.0767,18.041-46.1846,27.2173-69.2153C567.5806-26.0352,568.3662-28.8,570.7979-30.5757Z"/><path class="cls-80" d="M570.7979-30.5757q-9,23.2713-18.004,46.5405Q538.0533,53.92,523.27,91.8579a.6346.6346,0,0,1-1.0483-.0029q-25.32-42.4431-50.6338-84.8892-11.1666-18.7441-22.2427-37.5415Z"/><path class="cls-81" d="M667.9619,90.7993c-4.39-14.043-8.7261-28.103-13.18-42.126q-12.019-37.8478-24.1308-75.6665a31.437,31.437,0,0,1-.7119-3.5825H735.55c1.916,1.9639,2.021,4.4546,1.76,6.9116a131.4135,131.4135,0,0,1-1.8863,14.5879c-6.17,11.667-13.7631,22.4771-20.7788,33.6338-13.2934,21.1382-26.7778,42.1577-40.0366,63.3194a19.97,19.97,0,0,1-3.8008,5.03,2.3474,2.3474,0,0,1-1.45.3745C668.1563,92.87,668.7617,91.44,667.9619,90.7993Z"/><path class="cls-82" d="M644.73,237.5117c-8.4014-11.644-18.2339-22.1089-27.3911-33.1294-10.5015-12.6372-21.19-25.1191-31.7993-37.6675q-15.7449-18.6233-31.4942-37.2431-15.0769-17.8176-30.1406-35.6455a5.6283,5.6283,0,0,1-.624-1.9717c20.3681.001,40.7387.1831,61.1045-.0425,25.96-.2876,51.8793,1.9356,77.84,1.0547,2.0288-.0688,4.7895,1.252,5.7363-2.0674q.5274,1.054,1.0537,2.107c2.4942,2.8315,1.2486,6.0424.7417,9.062-6.2744,37.3779-12.038,74.8408-18.5673,112.1748-1.3516,7.727-1.4468,15.7456-4.792,23.0713A1.2792,1.2792,0,0,1,644.73,237.5117Z"/><path class="cls-83" d="M670.0791,93.9727q-.0089-.5355-.0181-1.0713c5.66-11.0562,12.8965-21.148,19.4629-31.647,14.5562-23.273,29.2725-46.4458,43.9239-69.66q.5214-.0015,1.0424-.0014C739.4209-4.3242,741.439,1.69,744.355,7.0146Q778.633,69.61,813.019,132.1475c3.0308,5.5444,5.9659,11.1445,9.1265,16.6215,1.1919,2.065,2.8262,4.21,1.0918,6.813-2.5552,1.5108-4.7436.0005-6.9727-.8921-44.9765-18.0058-89.7807-36.4365-134.7265-54.5175C677.4805,98.54,673.251,97.2349,670.0791,93.9727Z"/><path class="cls-84" d="M471.5151,1059.7266q53.2515,12.1186,106.503,24.2382,53.5107,12.1684,107.0224,24.337a10.2348,10.2348,0,0,1,1.8784.8437c-15.6611.0586-31.3227.1758-46.9838.166q-66.7911-.0394-133.5816-.1631a10.7,10.7,0,0,1-4.667-4.13c-9.18-12.6612-18.6528-25.11-27.6968-37.8692C472.4878,1065.03,469.8345,1063.02,471.5151,1059.7266Z"/><path class="cls-85" d="M356.4507,1109.1611q39.0988-17.4653,78.6094-33.98c9.8754-4.1133,19.5869-8.6241,29.3564-12.9893,1.6113-.7207,3.1558-1.5684,5-1.4228,1.6357,1.74.9214,3.6328.2192,5.4189-5.1338,13.0605-10.0473,26.208-15.4179,39.1758a9.6107,9.6107,0,0,1-2.75,3.7939Q403.96,1109.1587,356.4507,1109.1611Z"/><path class="cls-86" d="M451.4683,1109.1572c2.2192-8.8222,6.6655-16.8105,9.54-25.3769,2.6-7.749,6.645-14.9649,8.4087-23.0117l1.0547-1.0577q.5214.0119,1.0434.0147c4.5152,9.3193,11.5772,16.8877,17.44,25.2783,5.6816,8.1309,11.5893,16.1025,17.3979,24.1445Z"/><path class="cls-87" d="M1196.0107,228.0122h2.1123v1.0488c2.0928,1.5474,2.917,3.8785,3.8614,6.1548,23.2334,55.9732,45.9062,112.1758,69.0986,168.166,6.6524,16.0611,13.3691,32.0992,19.8525,48.232a24.4416,24.4416,0,0,1,2.0918,9.1455c.2266,2.6972-1.41,4.6592-2.7861,6.6572-32.3974,47.0586-64.3242,94.439-96.9248,141.3579a4.848,4.848,0,0,1-.7373.7549,3.76,3.76,0,0,1-2.9092.9238c-6.334-3.2832-9.77-9.49-14.2773-14.54-14.7412-16.5166-29.3311-33.1709-43.9424-49.8047q-25.0459-28.5124-50.1309-56.9917c-16.207-18.5078-32.5283-36.9155-48.7177-55.4395q-8.4991-9.7244-17.1338-19.33a7.7027,7.7027,0,0,1-2.0977-3.6035,4.635,4.635,0,0,1,.2276-2.2808c2.4853-3.6978,6.3183-6.0181,9.4043-9.1187,26.5146-26.6469,53.249-53.0756,79.6933-79.7915,28.7881-29.0839,58.834-56.8916,87.3633-86.2329a24.2265,24.2265,0,0,1,5.9521-4.2539Z"/><path class="cls-88" d="M824.27,156.24l2.107.003c6.72,5.7,14.8564,9.1172,22.3017,13.6342,15.5776,9.45,31.5025,18.3282,47.2593,27.4834q61.0971,35.5005,122.1821,71.022c2.002,1.1631,4.4561,1.9312,2.5772,5.0142-2.0479,7.438-7.9834,12.291-12.4258,18.04-13.32,17.2364-26.8252,34.3335-40.2861,51.4629q-30.2975,38.5576-60.4473,77.23c-1.0718,1.38-2.08,2.8647-3.8628,3.4736a2.9381,2.9381,0,0,1-1.5137-.0659c-8.0732-8.1147-14.6191-17.5019-21.7666-26.3818-38.45-47.7652-76.6094-95.7632-115.03-143.5513Q752.65,237.79,740.0669,221.8726c-1.2808-1.6289-2.9683-3.0669-3.08-5.3785.12-3.7338,2.5288-5.7373,5.4038-7.6455q37.6547-24.9975,75.2456-50.0927C819.6455,157.418,821.5972,155.8608,824.27,156.24Z"/><path class="cls-89" d="M1196.0107,229.0659c-5.2441,5.417-10.3535,10.9717-15.7519,16.23-53.4639,52.0684-106.044,105.0249-158.8359,157.7686a44.3423,44.3423,0,0,1-7.0616,5.434c-2.3945-2.1884-2.0849-5.145-1.9961-7.89.4707-14.5581,1.6387-29.0815,2.5088-43.6177.8174-13.6548,1.8086-27.3086,2.5781-40.9643.7012-12.4405,1.82-24.8521,2.3575-37.3a7.7819,7.7819,0,0,1,1.9443-5.3291c1.1289-.7969,1.042-2,1.0586-3.1685q80.1563-19.4025,160.32-38.7744C1187.3711,230.4321,1191.7158,229.8516,1196.0107,229.0659Z"/><path class="cls-90" d="M1021.7539,273.397c-.2988,16.9624-1.7666,33.8515-3.0635,50.7549-.48,6.27-.498,12.5615-1.0049,18.8559-1.1914,14.81-1.1523,29.7227-2.4667,44.5181-.6231,7.0137-.6592,13.98-.8575,20.9726v2.1084a4.79,4.79,0,0,1-1.4912,1.1656c-12.2549,2.35-24.707,3.2129-37.0674,4.7631-20.2119,2.5357-40.4555,4.8238-60.6875,7.2012-3.6162.4248-7.2822,1.3794-10.9487.17-.2334-.2129-.4648-.4292-.6963-.6455q20.7093-26.748,41.4258-53.49,23.9693-30.8415,48.0366-61.6064c9.1563-11.6666,18.5039-23.1832,27.7647-34.7676Z"/><path class="cls-91" d="M824.27,156.24q-40.4261,26.9357-80.8623,53.8565c-2.4653,1.64-5.1118,3.0381-5.7456,6.31-.46.8227-.9175,1.65-2.0928,1.0546,1.2115-3.26-.7158-5.7671-2.12-8.3261q-20.2266-36.8811-40.5322-73.7193-11.4082-20.7275-22.8384-41.4428,34.393,13.7549,68.7813,27.5239c19.8251,7.9888,39.6,16.1006,59.4,24.1518,8.25,3.3545,16.3173,7.1841,24.9511,9.5332q.5252.0081,1.0508.0186Q824.2637,155.72,824.27,156.24Z"/><path class="cls-92" d="M1013.3047,410.6069h1.0566q13.5235,15.3625,27.041,30.7305c11.6348,13.2935,23.1983,26.65,34.8487,39.93,8.541,9.7344,17.2011,19.3647,25.7588,29.085q18.3779,20.8768,36.6923,41.811c8.44,9.59,16.9659,19.1045,25.4063,28.6943q12.8277,14.5737,25.5654,29.2266c-.2158.2363-.4326.4726-.6465.7129-6.0752,2.6318-12.1845.3379-18.1562-.2588q-55.0079-5.4961-109.98-11.3584c-16.5635-1.7617-33.2529-2.57-49.6406-5.8994a3.6587,3.6587,0,0,1-1.542-1.253,4.0241,4.0241,0,0,1-.2549-2.0009c-.6973-17.7149-.8721-35.461-.18-53.1441.94-24.0327.1143-48.081,1.1455-72.0722.6641-15.4419.4756-30.8584.8135-46.2832C1011.2939,415.7275,1011.1045,412.8521,1013.3047,410.6069Z"/><path class="cls-93" d="M1010.1387,591.0908q-35.3145-55.7871-70.6421-111.5664c-11.9312-18.7954-24.0083-37.4985-36.0195-56.2431,18.04-2.12,36.0854-4.1856,54.1167-6.3755,16.122-1.9585,32.2236-4.084,48.3437-6.0581,2.4287-.2974,4.91-.1709,7.3672-.2408,0,9.8228.3711,19.6621-.0713,29.4644-1.208,26.7925-.0762,53.63-1.2529,80.3823-.9551,21.7368-.2217,43.436-.8076,65.1421C1011.123,587.4639,1011.7441,589.499,1010.1387,591.0908Z"/><path class="cls-94" d="M1114.6963,747.3047l-.0059-2.1162c-7.3242-7.4785-12.3408-16.6563-18.2109-25.1719q-42.2286-61.2655-84.3467-122.6074c-.89-1.291-2.0058-2.4863-1.999-4.2071.0019-.3525.0039-.706.0049-1.0585q18.7777,1.9423,37.5547,3.8789c11.6562,1.1884,23.3183,2.3134,34.9726,3.5195,12.3438,1.2773,24.6807,2.6211,37.0205,3.9287,10.4317,1.1064,20.8438,2.4678,31.3008,3.2354,12.9141.9472,25.708,3.2265,38.6865,3.3935q.5259,1.0518,1.0508,2.1045c-6.167,14.9883-14.8613,28.6572-22.5137,42.8652-15.3379,28.48-31.1338,56.709-46.5752,85.1328-1.26,2.3174-2.2392,4.8116-4.833,6.042v.002Q1115.75,746.7749,1114.6963,747.3047Z"/><path class="cls-95" d="M364.8706,141.4814q3.3691-19.3667,6.7339-38.7343c4.1147-23.9429,8.1533-47.8994,12.3149-71.8345,3.2637-18.77,6.6758-37.5147,9.9873-56.2769.3023-1.7143.3536-3.4731.5215-5.2114h54.9175c2.3066,1.1475,3.6865,3.1314,4.9541,5.2808,22.01,37.3335,44.4531,74.4087,66.5835,111.6709,1.0659,1.7949,2.3652,3.5332,2.0483,5.8325a2.9318,2.9318,0,0,1-.8276,1.4155c-9.312,4.229-19.2231,6.7339-28.9233,9.7959q-44.27,13.9739-88.564,27.875c-11.07,3.4873-22.124,7.0274-33.2451,10.3506C369.2109,142.291,366.9917,143.2769,364.8706,141.4814Z"/><path class="cls-96" d="M645.7808,237.5122c1.9091-12.2305,3.7519-24.4712,5.7412-36.6885,3.6714-22.5468,7.4326-45.08,11.1494-67.6191q2.8514-17.2947,5.668-34.5957c.3056-1.8877.4545-3.8008.6757-5.7026q.5231-.0015,1.0459-.0049a3.3049,3.3049,0,0,1,1.3252.8564c10.2222,17.0025,19.3174,34.6367,28.9468,51.9727,11.2515,20.2563,22.1665,40.7,33.5234,60.8984,2.2041,3.92,3.9722,7.7959,3.45,12.4067-.7651,14.7334-2.896,29.3218-4.4292,43.9683-3.2871,31.4-6.7954,62.7774-10.1,94.1763-1.854,17.6181-4.0024,35.2046-5.6411,52.8462a19.0093,19.0093,0,0,1-1.6806,7.1245,2.5431,2.5431,0,0,1-1.3516,1.0908c-2.44-.6987-2.7959-2.959-3.5171-4.8726-21.2412-56.3388-42.834-112.5449-64.0522-168.8925C645.7012,242.2622,644.1187,240.0361,645.7808,237.5122Z"/><path class="cls-97" d="M553.8975,926.7354c8.561,11.7773,18.6176,22.3164,27.8217,33.5625,9.7593,11.9248,19.6475,23.7451,29.5332,35.5664,11.5738,13.8388,23.2227,27.6152,34.8072,41.4453q18.0476,21.5463,36.0322,43.1445,11.9443,14.3277,23.8418,28.6953-9.5076-.0029-19.0147-.0039c-27.621-3.3359-54.3227-11.1006-81.3862-17.0762-42.3735-9.3564-84.6147-19.3115-126.9682-28.7685a28.6889,28.6889,0,0,1-6.51-2.0694,4.4794,4.4794,0,0,1-1.4658-.8554,2.3322,2.3322,0,0,1-.6353-1.4776c5.46-11.207,12.6489-21.3964,19.1558-31.9853,18.92-30.7881,38.0293-61.461,57.0063-92.2149,1.8218-2.9521,3.2583-6.2548,6.3438-8.2636A1.499,1.499,0,0,1,553.8975,926.7354Z"/><path class="cls-98" d="M713.395,1109.1523c.81-1.9316,1.5132-3.9169,2.4463-5.788,12.3135-24.6768,24.9756-49.1856,36.9263-74.0362,20.249-42.1054,41.7143-83.6015,62.3452-125.5136,6.272-12.7422,12.4443-25.5323,18.6621-38.3008a1.2846,1.2846,0,0,1,1.6343.1582c1.8071,1.9043,2.0791,4.41,2.5923,6.7988,10.7163,49.8535,21.9233,99.6,32.4428,149.4961,2.3882,11.3271,5.6289,22.4883,6.7193,34.0713a4.6445,4.6445,0,0,1-.5371,1.6474c-1.6333,2.0323-4.0537,2.6729-6.3521,3.4971-25.7695,9.24-51.7744,17.8018-77.62,26.8252-17.8926,6.2471-35.87,12.2549-53.7119,18.6465-3.8389,1.375-7.8887,1.5322-11.7905,2.4893Z"/><path class="cls-99" d="M735.5693,217.4609q1.046-.528,2.0928-1.0551,41.7217,52.0136,83.44,104.03,40.2188,50.1908,80.3632,100.4424a8.8914,8.8914,0,0,1,.9512,2.3936c.8877,2.9028-1.2378,4.5991-2.7617,6.3838q-56.4426,66.1069-112.5913,132.4638c-3.7315,4.4209-7.4737,8.8614-11.4883,13.045-1.2915,1.3457-2.3667,3.2558-4.7944,2.2841-2.6109-2.1494-3.3135-5.3378-4.3584-8.2793-16.5274-46.541-33.2237-93.0214-49.6822-139.5864-1.3042-3.6894-3.7363-7.3-2.3149-11.5923,1.1865-11.8139,2.331-23.6323,3.5723-35.44,1.2226-11.6309,2.5356-23.2519,3.8242-34.8755,1.6343-14.7466,3.3164-29.4878,4.9175-44.2378,1.2251-11.2842,2.3588-22.5781,3.5278-33.8681,1.1509-11.1177,2.2231-22.2437,3.4687-33.3506C734.4365,229.9727,735.5337,223.77,735.5693,217.4609Z"/><path class="cls-100" d="M958.39,899.2881c-4.8608,9.7-9.62,19.4531-14.6069,29.0879-6.606,12.7636-13.4141,25.4228-20.0933,38.1494q-22.84,43.5147-45.62,87.0625a19.6754,19.6754,0,0,0-1.0054,2.9619h-1.0507q-8.9606-41.7436-17.9307-83.4834c-5.354-24.76-10.8091-49.498-16.1816-74.2539-2.4068-11.0908-4.7217-22.2-7.0787-33.3018q.003-.5272.0054-1.0556c1.627-1.5225,3.54-1.37,5.4522-.8291,39.0366,11.0547,78.2241,21.583,117.01,33.5224C958.064,897.6533,958.6411,898.26,958.39,899.2881Z"/><path class="cls-101" d="M1010.1387,591.0908c.0009.35.0009.6983,0,1.0479-2.294,2.2627-5.2569,1.8281-7.9727,1.667-23.3252-1.3828-46.6553-2.6856-69.9819-4.0342q-44.7276-2.5854-89.4487-5.3115c-23.1441-1.4336-46.3-2.7188-69.4322-4.35-1.001-.1387-2.0171-.2657-1.8486-1.6856q.0036-.5259.0078-1.0518c13.1611-14.5292,25.7236-29.5673,38.2388-44.6518,8.9482-10.7847,18.23-21.292,27.3125-31.9653,8.8535-10.4034,17.6186-20.8809,26.4677-31.2871,9.0791-10.6763,18.2789-21.25,27.292-31.981,3.938-4.6885,8.458-8.9107,11.6431-14.2163q.5267-.0015,1.0537-.01l.0073.02c2.72,1.1831,4.3257,3.4584,5.8335,5.8608q31.2144,49.7388,62.8228,99.2285c11.3262,17.7642,22.5117,35.6167,33.9639,53.3C1007.9688,584.56,1010.3828,587.2715,1010.1387,591.0908Z"/><g class="cls-37"><path class="cls-102" d="M363.7964,142.5171c-.0318-1.9966-1.5054-3.0942-2.7417-4.3125C337.5386,115.0415,314.32,91.564,290.3569,68.8721,278.7534,57.8843,267.541,46.5259,256.11,35.3789q-31.2965-30.52-62.376-61.2617c-1.4917-1.4678-2.7979-3.124-4.19-4.6929H394.4282c2.3828,2.6411,1.3052,5.6719.814,8.54C391.54-.4214,387.6929,21.168,383.9258,42.7715q-8.0464,46.144-16.17,92.2744a29.386,29.386,0,0,1-1.438,5.602,4.5785,4.5785,0,0,1-.8614,1.6114c-.2563.17-.5141.3369-.7719.5044Q364.2407,142.6413,363.7964,142.5171Z"/><path class="cls-103" d="M313.106,388.4424q40.0524-18.1875,80.0976-36.3906c19.1719-8.7613,38.2373-17.7554,57.4409-26.4449,3.9322-1.7793,4.107-3.604,2.2832-7.2143-15.624-30.9224-31.3964-61.7769-46.47-92.9673-12.5483-25.9639-25.65-51.6455-38.3994-77.5054-.9219-1.87-2.12-3.6045-3.1894-5.4018q0-.5186.0014-1.0367c10.66-2.2587,20.8657-6.0742,31.2285-9.3105,38.0254-11.8765,75.9585-24.0469,113.9439-36.05,3.9975-1.2632,8.1128-2.1533,12.1733-3.2168,1.2627,2.251.4243,4.4688-.2051,6.6348-11.2822,38.8344-22.3686,77.7251-33.8339,116.5073-9.77,33.0454-19.1431,66.21-28.6963,99.3193-.813,2.8169-2.5606,5.47-1.9829,8.6265,2.9594,33.6719,5.4741,67.3726,8.3852,101.0415,1.1162,12.9063,1.9829,25.8374,3.2124,38.7368a18.829,18.829,0,0,1-.5532,6.7632c-1.8613,3.5576-4.4629,1.773-6.7749.7759-6.958-3.0015-13.4268-6.9614-20.0806-10.55-32.6606-17.6177-65.3779-35.13-97.9472-52.9165-6.9429-3.792-13.8921-7.5864-20.9346-11.2041-3.5591-1.8286-7.3906-3.3565-9.9575-6.7046A1.3781,1.3781,0,0,1,313.106,388.4424Z"/><path class="cls-104" d="M455.6875,323.01c3.5107-12.4629,6.959-24.9439,10.5439-37.3858q14.8368-51.4952,29.7745-102.9619,13.0422-44.8974,26.21-89.7583-.0015-.5244.0064-1.0488.5236.0021,1.0483.0029l.01-.0034c4.853,3.3633,8.1318,8.2432,11.8281,12.6533,33.5063,39.9761,67.4111,79.6162,100.9033,119.603,3.5151,4.1973,8.4356,7.6075,9.3311,13.6636a3.3082,3.3082,0,0,1-1.3853,1.8858c-28.4145,13.4721-57.2485,26.0263-85.8662,39.0556q-47.4873,21.6212-95.0942,42.9829C460.7188,322.7212,458.5264,324.85,455.6875,323.01Z"/><path class="cls-105" d="M713.395,1109.1523l-7.4614-.0029c-4.1206-1.4385-6.1094-5.1933-8.6489-8.2353q-60.255-72.1832-120.648-144.251-9.7836-11.7246-19.7812-23.2793c-1.72-1.9942-3.4571-4-3.9873-6.7139-.1953-2.4511,1.08-4.375,2.3149-6.2939,19.5669-30.4033,38.7891-61.0254,58.1616-91.5518C625.38,809.8594,637.19,790.749,649.313,771.8379c1.0351-1.6143,1.9077-3.375,3.5264-4.5518a3.05,3.05,0,0,1,1.5166-.4072c8.6274,2.6924,16.0561,7.835,23.9585,11.9707,23.3383,12.2139,46.4794,24.8057,69.6953,37.2539,27.2392,14.6055,54.5366,29.1026,81.6552,43.9317,2.2481,1.2294,4.9634,2.1826,5.1246,5.45-.1875,2.3466-1.3824,4.3232-2.3721,6.372-23.0069,47.63-47.31,94.6182-70.4922,142.1572-14.4038,29.5362-29.2217,58.8624-43.7666,88.3262C716.9229,1104.8438,715.9385,1107.5508,713.395,1109.1523Z"/><path class="cls-106" d="M260.3164,853.9063l1.0576-.0059c4.1406,1.2324,3.2,5.085,3.6768,7.8642,4.4595,25.9932,8.4829,52.0606,12.91,78.0606,8.9429,52.5195,17.2315,105.1484,26.0875,157.6836.6425,3.8115,2.6806,7.873-.4151,11.6338-17.02.06-34.04.1748-51.061.1689q-62.1233-.0191-124.2466-.1279c5.4546-12.958,12.8022-24.9629,18.9556-37.5752,5.3061-10.874,11.3945-21.3643,16.9663-32.1133,12.4458-24.0078,24.7363-48.0967,37.1811-72.1055q19.51-37.639,39.2017-75.1855c5.6079-10.7119,11.39-21.332,17.0244-32.03C258.708,858.1719,259.437,856,260.3164,853.9063Z"/><path class="cls-107" d="M303.6328,1109.1426c-.5215-10.169-3.1108-20.0186-4.687-30.0244-3.6147-22.9463-7.4014-45.8672-11.188-68.7871-4.0434-24.4747-8.2007-48.93-12.2471-73.4043-3.7041-22.4043-7.2578-44.834-11.0351-67.2266-.8916-5.2852-1.0967-10.7266-3.1016-15.8.0025-.3428.0039-.6846.0059-1.0274a2.91,2.91,0,0,1,1.4658-.8105c6.1665.6426,11.8672,3.0557,17.7046,4.8652,44.5947,13.8233,89.1343,27.8243,133.813,41.376,1.6816.5108,3.3257,1.1143,4.9775,1.707a4.084,4.084,0,0,1,1.4317.8692,2.4781,2.4781,0,0,1,.582,1.5137c-1.9165,6.6044-5.09,12.705-8.1519,18.7939-24.9511,49.6191-49.0005,99.6846-73.9785,149.291-5.5278,10.98-10.6513,22.1738-16.1762,33.1651-1.1016,2.1914-2.0376,4.5371-4.607,5.51Q311.0369,1109.1475,303.6328,1109.1426Z"/><path class="cls-108" d="M470.4741,1058.666q-.0029.5216-.0024,1.0449c.3115.96-.2315,1.5352-.917,2.0479-34.39,15.1816-69.0039,29.8535-103.5186,44.7549a52.9455,52.9455,0,0,1-9.5854,2.6474q-19.0048-.0043-38.01-.0078c19.9072-40.12,40.1113-80.0967,59.607-120.416C389.2114,965.65,400.9,942.832,412.1748,919.8047,415.0166,914,416.79,907.66,420.83,902.4521c.2685.087.5366.1739.8071.2579,2.3237,1.71,2.7744,4.4257,3.543,6.8994,14.8154,47.6767,30.0293,95.2275,44.8916,142.8886C470.7041,1054.5273,471.3452,1056.5439,470.4741,1058.666Z"/><path class="cls-109" d="M467.3018,472.8823q-.0023-.5265-.0035-1.0532c-.7905-17.0972-2.4912-34.12-4.0546-51.1572-.9419-10.2608-1.4483-20.5606-2.3-30.83-1.27-15.3032-2.733-30.59-3.9908-45.894-.5727-6.9668-.8525-13.9581-1.2651-20.938,12.3311-5.4615,24.6919-10.856,36.9868-16.3975q44.3475-19.9893,88.6445-40.0908,28.9857-13.1243,57.9605-26.2735c1.4258-.645,2.9277-1.122,4.3945-1.6772,1.6626,2.6563-.5068,4.314-1.7929,5.9688-14.8736,19.1372-29.0381,38.8076-43.7759,58.0483-19.1153,24.9556-37.7129,50.3032-56.7276,75.3369-19.12,25.1729-37.9975,50.5283-57.1953,75.6426-4.6577,6.0928-10.03,11.7305-12.99,18.9956a3.055,3.055,0,0,1-1.5073,1.6514A1.9357,1.9357,0,0,1,467.3018,472.8823Z"/><path class="cls-110" d="M470.4639,472.8779c-1.2144-1.8154-.3653-3.0644.8237-4.6269q17.65-23.2,35.11-46.5454,21.7756-28.9733,43.5327-57.9595,30.0688-39.8219,60.247-79.5615,16.3214-21.5721,32.544-43.2178a9.7894,9.7894,0,0,0,.9526-2.396l1.0562-1.0591q.5259,0,1.0508.0005,13.7109,36.3714,27.4316,72.74c11.8677,31.2763,23.8418,62.5126,35.686,93.7978,1.7271,4.5615,4.0655,8.957,4.481,13.9507-.1831.2324-.3662.4643-.5469.7-10.1919,4.0347-21.05,5.4409-31.6455,7.8213-55.1992,12.4023-110.26,25.41-165.4829,37.7046-12.6909,2.8257-25.3091,5.9717-38.0547,8.5488C475.2808,473.2539,472.8765,474.189,470.4639,472.8779Z"/><path class="cls-111" d="M714.4253,417.99c7.0254,19.8223,13.9946,39.6646,21.0893,59.4624q17.9108,49.9827,35.9478,99.92a1.9345,1.9345,0,0,1,.5029,1.4151c-5.3808,10.6748-12.0527,20.59-18.331,30.7314Q713.26,674.7344,672.813,739.9043c-5.729,9.2178-10.7412,18.9307-17.8252,27.2744-.25.0615-.5015.12-.7529.18l-1.0611-.0029c-.24-.1641-.48-.3291-.7212-.49-4.4829-9.8173-6.46-20.3994-9.0571-30.7548-13.854-55.2364-27.71-110.4708-41.998-165.5977-1.4917-5.7549-3.7476-11.3838-3.5152-17.4912.35-3.16,2.3526-5.375,4.3106-7.6621q31.0209-36.249,62.2383-72.3281c14.7983-17.168,29.4106-34.5,44.4638-51.4493a17.6456,17.6456,0,0,1,4.4785-3.5854l.0059.0039Z"/><path class="cls-112" d="M553.8975,926.7354q-.5251-.003-1.05-.003a3.5935,3.5935,0,0,1-1.1914-1.4092c-3.586-17.0039-5.8448-34.2373-8.5962-51.3818q-10.4291-64.9848-20.81-129.9756c-2.5957-16.4541-5.7163-32.832-7.5122-49.4013a4.1754,4.1754,0,0,1,.4282-1.6377c2.02-2.1055,3.9727-.5938,5.6929.3574,22.4565,12.417,45.0434,24.5967,67.5122,36.9912,19.3887,10.6953,38.7466,21.4473,58.2314,31.9668,2.5039,1.3525,4.9136,2.7187,6.5713,5.1084v.0049c-1.7041,6.0508-6.0591,10.5986-9.2246,15.7841-11.4922,18.8243-23.375,37.4112-35.1919,56.0352Q582.596,880.4088,556.3047,921.56C555.2607,923.1963,554.1,924.73,553.8975,926.7354Z"/><path class="cls-113" d="M834.8232,865.5107q-.5244,0-1.0483.003c-2.3174-4.1074-6.791-5.2617-10.4976-7.2588-31.4892-16.9678-63.0844-33.7393-94.6455-50.5742q-30.8634-16.4619-61.71-32.958c-4.3062-2.3106-8.4619-4.9024-12.6875-7.3643l0-.0049a22.7718,22.7718,0,0,1,7.2329-4.1738c37.0342-13.4111,74.14-26.6231,111.1762-40.0264q24.5538-8.8872,49.1114-17.7617c2.6855-.9746,5.5786-2.6494,8.4389-.166,1.2637,2.54.8306,5.4932,2.0069,8.0576a14.955,14.955,0,0,1,.3784,3.6611c-.5215,16.6582,1.0283,33.2647,1.2856,49.91.397,25.7373,1.8335,51.4551,2.16,77.206.084,6.6143,1.6851,13.21.0522,19.8379A3.7879,3.7879,0,0,1,834.8232,865.5107Z"/><path class="cls-114" d="M420.8325,901.3994q17.1131-37.8516,34.2373-75.6973c7.7559-17.08,15.6919-34.0791,23.4068-51.1777q18.268-40.4853,36.35-81.0537.5178-.8013,1.0434-.0049c2.45,14.4571,4.9932,28.8994,7.3267,43.376,2.6675,16.5478,5.1,33.1328,7.7236,49.6875q5.0815,32.0683,10.3076,64.1133,5.61,34.6392,11.251,69.2744a57.4361,57.4361,0,0,1,.3648,5.7607c-2.1036,1.95-4.5425,1.4131-6.9854.9639q-57.2863-10.5234-114.6558-20.5908c-3.6357-.6387-7.2827-1.3174-10.3628-3.5908l-.01-.0079Z"/><path class="cls-115" d="M420.84,902.46c9.6275,1.625,19.2686,3.1748,28.88,4.8906q33.26,5.9355,66.4966,12.0019c10.31,1.8672,20.6108,3.7793,30.9238,5.628,1.8824.3379,3.8018.47,5.7037.6972q.0006.5274.0034,1.0547-17.094,27.7662-34.1924,55.5283-22.2335,36.0279-44.5552,72.002c-.9834,1.5811-1.685,3.5449-3.6255,4.4033q-11.0435-34.5277-22.0771-69.0576c-5.5161-17.3574-10.918-34.752-16.4024-52.1191C428.3047,925.8037,424.56,914.1357,420.84,902.46Z"/><path class="cls-116" d="M380.6992,621.707l-1.0561-.0029q15.2556-26.0493,30.52-52.0928,28.5272-48.39,57.1387-96.729,1.0539.5259,2.1088,1.0523c2.6617-.6992,4.7442.6611,6.85,1.9292,39.2579,23.6377,78.3921,47.4795,117.6958,71.0415,1.9019,1.14,4.21,2.0088,4.6123,4.6865a3.0348,3.0348,0,0,1-.7392,1.4336,13.2594,13.2594,0,0,1-5.207,2.4473c-39.2373,12.3945-78.2759,25.4043-117.4986,37.8447-29.332,9.3037-58.5483,18.9717-87.9048,28.2C385.1045,622.1826,382.92,623.39,380.6992,621.707Z"/><path class="cls-117" d="M598.2563,552.0283c-7.291-6.084-15.875-10.1338-23.9121-15.0249q-49.3761-30.0468-98.9565-59.76c-1.9487-1.1748-3.9829-2.209-5.9771-3.3086q.5267-.5282,1.0533-1.0567c16.3632-3.834,32.71-7.7392,49.0932-11.4843,22.5484-5.1534,45.13-10.1622,67.6875-15.2749q61.4926-13.938,122.98-27.9048a20.0008,20.0008,0,0,1,3.1489-.2173c-7.6889,10.6948-16.98,20.041-25.43,30.0957-11.9467,14.2139-24.1079,28.2485-36.226,42.3179-9.7207,11.2861-19.6543,22.3925-29.2305,33.7993-7.76,9.2431-16.35,17.8012-23.1772,27.82A.6328.6328,0,0,1,598.2563,552.0283Z"/><path class="cls-118" d="M771.4546,578.4248q.5259.5287,1.0513,1.0586c2.2138.5781,2.7382,2.5859,3.5268,4.2969,15.3628,33.333,30.8247,66.62,45.9463,100.0625,2.3877,5.2812,5.2085,10.3652,7.228,15.81.65,1.7549,1.8706,3.5156.3306,5.4209C819.3,707.02,809.9863,711.69,800.25,715.0947c-20.5117,7.1739-40.8872,14.7364-61.3349,22.0918Q697.8513,751.96,656.76,766.6543c-.82.293-1.6822.4687-2.5249.6992q14.03-22.8442,28.0678-45.6846c19.4351-31.458,38.7735-62.9775,58.4229-94.3017C750.9614,611.0488,760.4282,594.2461,771.4546,578.4248Z"/><path class="cls-119" d="M598.2563,552.0283q.5267.0059,1.0538.001c.5141,9.7314,4.1811,18.75,6.51,28.0566,7.7334,30.9,15.8042,61.7168,23.6782,92.5821q11.8059,46.2787,23.4722,92.5927a13.6083,13.6083,0,0,1,.2031,2.09c-14.6782-7.8867-29.4013-15.69-44.0219-23.6817-15.5606-8.5048-30.9976-17.2353-46.5372-25.7793-15.5434-8.5458-31.1464-16.9843-46.7236-25.4687-1.0869-2.958.8765-5.0488,2.1738-7.2578Q551.32,628.5615,585.0474,572.24c4.1215-6.9033,7.1513-14.5468,13.2119-20.1914Z"/><path class="cls-120" d="M598.2593,552.0488c-6.4141,12.4424-13.9385,24.2432-21.0469,36.2823q-28.3082,47.9457-56.6836,95.8505c-1.603,2.7129-3.0947,5.4913-4.6377,8.2383q-.011.5231-.021,1.0459c-.3476.002-.6958.003-1.0434.0049-.07-2.4121-1.9981-3.09-3.71-3.9687-13.1035-6.7247-26.1807-13.5-39.3159-20.1622q-43.4736-22.0488-86.9834-44.0283c-1.64-.832-3.8364-1.166-4.1182-3.6045q35.3416-11.3349,70.6812-22.6738,68.3928-22.0341,136.7739-44.1016C591.4863,553.8584,594.8892,553.0049,598.2593,552.0488Z"/></g><path class="cls-121" d="M829.5376,705.0742c-5.7861-12.9736-11.4878-25.9853-17.3755-38.9121Q792.408,622.79,772.5059,579.4834c3.9731-2.1328,8.4321-1.5732,12.3222-.8125,7.4824,1.4639,15.02.84,22.5088,1.6025,15.1328,1.543,30.4209,1.4961,45.6255,2.419,20.0723,1.2168,40.1147,2.957,60.1943,4.0049,6.9937.3652,13.98.8623,20.9742,1.2041,22.892,1.1211,45.7861,2.1884,68.6269,4.1582,2.4443.21,4.92.0615,7.3809.0791v.0049a1.2337,1.2337,0,0,1,.334.9169c-.0264.334-.0733.5-.1348.501-4.7822,4.8-10.916,7.6309-16.5625,11.1358q-78.4329,48.6943-156.813,97.4707a13.6142,13.6142,0,0,0-3.6343,3.0058c-1.6025.3506-1.8647,1.2451-1.0361,2.585-.3091,1.6641-.0064,3.5478-1.6958,4.7129C828.6626,710.2314,829.9023,707.5381,829.5376,705.0742Z"/><path class="cls-122" d="M830.5962,712.4717c.2036-1.7891-.59-3.7764,1.0561-5.2774,3.0616.8975,4.0455,3.7735,5.5552,6.045q50.3519,75.7646,100.5391,151.6386c6.0049,9.0938,12.0635,18.1534,18.07,27.2451,1.1665,1.7657,3.2422,3.5293,1.5176,6.1075-13.5537-2.8662-26.6777-7.291-39.9863-11.043-26.47-7.4639-52.9126-15.0273-79.3775-22.5117a15.16,15.16,0,0,0-3.1416-.2207c-.0083-15.97-.8369-31.9278-1.29-47.8809-.6577-23.1318-1.29-46.2724-2.1494-69.3945C830.959,735.6064,830.9365,724.0381,830.5962,712.4717Z"/><path class="cls-123" d="M957.334,898.2305c-5.6406-10.7041-12.9185-20.3594-19.5635-30.416q-33.2051-50.25-66.5654-100.3985c-13.25-20.03-26.3726-40.1445-39.5528-60.2217-.5161-1.14-.6762-2.1015,1.0591-2.1162,2.5469-2.417,5.5576-1.6308,8.5059-1.2158,53.1421,7.4717,106.2236,15.3623,159.3374,23.0322,34.999,5.0537,70.01,10.0352,104.9707,15.3555,3.0957.4717,6.35.542,9.085,2.4414a1.9347,1.9347,0,0,1,.0859,2.6133c-7.2422,8.1172-15.2266,15.4551-23.2031,22.8457-10.5567,9.7822-20.1309,20.6279-30.7442,30.3437-13.6045,12.4541-25.9853,26.1514-39.6308,38.5069-12.6387,11.4443-24.044,24.1045-36.5821,35.6035-8.66,7.9434-17.2949,15.875-25.0947,24.6758-.3506.0039-.7007.0058-1.0513.0078Z"/><path class="cls-124" d="M1010.1338,593.2021c3.0664,1.72,4.5127,4.875,6.3642,7.5655q35.335,51.3456,70.5,102.81c8.628,12.5713,17.4375,25.0186,26.0323,37.6123.7558,1.1075,2.5908,2.0762,1.66,3.9981-10.7422-1.4473-21.4961-2.8252-32.2265-4.3574q-24.9243-3.5611-49.8243-7.292c-25.5986-3.794-51.1777-7.7149-76.7895-11.4112-28.0381-4.0459-56.11-7.8564-84.1548-11.8515-12.98-1.85-25.8652-4.3946-38.9839-5.1983-1.1015-2.8652,1.6426-3.1943,2.9883-4.0342q55.3257-34.56,110.7573-68.95,30.8292-19.16,61.6905-38.2706A8.26,8.26,0,0,1,1010.1338,593.2021Z"/></g></g></svg>