<svg xmlns="http://www.w3.org/2000/svg" width="100.6085" height="40" viewBox="0 0 100.6085 40"><defs><style>.cls-1{fill:#1c2d45;}.cls-2{fill:#19bf8c;}.cls-3{fill:#fff;}</style></defs><g id="Capa_4" data-name="Capa 4"><path class="cls-1" d="M38.3035,27.8383a.7632.7632,0,0,1-.5447-.2161.7066.7066,0,0,1,0-1.0387.7945.7945,0,0,1,1.0894,0,.7066.7066,0,0,1,0,1.0387A.763.763,0,0,1,38.3035,27.8383Zm-.5516,8.2369v-7.06h1.0848v7.06Z"/><path class="cls-1" d="M41.9072,31.828v4.2472H40.8224v-7.06H41.87v1.1031h.0919a2.0305,2.0305,0,0,1,.7539-.8664,2.6665,2.6665,0,0,1,3.0359.3286,2.7281,2.7281,0,0,1,.66,2.0087v4.4862H45.3269V31.6625a1.8389,1.8389,0,0,0-.432-1.2985,1.5373,1.5373,0,0,0-1.1859-.4665,1.7647,1.7647,0,0,0-1.2893.5033A1.91,1.91,0,0,0,41.9072,31.828Z"/><path class="cls-1" d="M51.0633,36.2223a2.7542,2.7542,0,0,1-1.5583-.4482,2.9929,2.9929,0,0,1-1.0572-1.2686,5.1055,5.1055,0,0,1,0-3.8725A2.9672,2.9672,0,0,1,49.51,29.3689a2.8027,2.8027,0,0,1,1.572-.4459,2.2211,2.2211,0,0,1,1.0917.2275,1.9455,1.9455,0,0,1,.616.5149q.2136.2872.3332.4711h.0919V26.6616h1.0848v9.4136h-1.048V34.99h-.1287q-.12.1931-.34.4849a1.9764,1.9764,0,0,1-.63.5194A2.24,2.24,0,0,1,51.0633,36.2223Zm.1471-.9745a1.7157,1.7157,0,0,0,1.5008-.7515,3.3521,3.3521,0,0,0,.5216-1.9512,3.26,3.26,0,0,0-.5148-1.9167,1.727,1.727,0,0,0-1.5076-.7309,1.826,1.826,0,0,0-1.1469.3517,2.1118,2.1118,0,0,0-.6849.9514,3.7668,3.7668,0,0,0-.2275,1.3445,3.84,3.84,0,0,0,.2321,1.3674,2.1985,2.1985,0,0,0,.69.9745A1.779,1.779,0,0,0,51.21,35.2478Z"/><path class="cls-1" d="M56.9834,27.8383a.7631.7631,0,0,1-.5446-.2161.7066.7066,0,0,1,0-1.0387.7944.7944,0,0,1,1.0893,0,.7063.7063,0,0,1,0,1.0387A.763.763,0,0,1,56.9834,27.8383Zm-.5516,8.2369v-7.06h1.0849v7.06Z"/><path class="cls-1" d="M62.3706,36.2223a2.9548,2.9548,0,0,1-2.8132-1.7605,4.3759,4.3759,0,0,1-.386-1.88,4.3274,4.3274,0,0,1,.3976-1.9006A3.121,3.121,0,0,1,60.6814,29.39a2.9871,2.9871,0,0,1,1.6707-.4666,3.1672,3.1672,0,0,1,1.3422.2758,2.5713,2.5713,0,0,1,.9791.7723,2.4094,2.4094,0,0,1,.4734,1.1583H64.062a1.7,1.7,0,0,0-.5492-.8573,1.6662,1.6662,0,0,0-1.1422-.3746,1.87,1.87,0,0,0-1.533.7239,2.9813,2.9813,0,0,0-.5815,1.9237,3.1113,3.1113,0,0,0,.5746,1.9649,1.8515,1.8515,0,0,0,1.54.7378,1.8091,1.8091,0,0,0,1.087-.3263,1.565,1.565,0,0,0,.6044-.9055h1.0848A2.5113,2.5113,0,0,1,64.694,35.14a2.5389,2.5389,0,0,1-.9514.7906A3.0617,3.0617,0,0,1,62.3706,36.2223Z"/><path class="cls-1" d="M68.8054,36.2407a2.8468,2.8468,0,0,1-1.2181-.2552,2.0029,2.0029,0,0,1-1.19-1.9144,1.8239,1.8239,0,0,1,.239-.9859,1.6928,1.6928,0,0,1,.6389-.5953,3.41,3.41,0,0,1,.8849-.324q.4848-.108.9767-.1724.6435-.0826,1.0457-.1264a1.5964,1.5964,0,0,0,.5883-.1494.387.387,0,0,0,.1862-.3677v-.0368a1.4455,1.4455,0,0,0-.37-1.0572,1.5049,1.5049,0,0,0-1.1193-.3768,1.9513,1.9513,0,0,0-1.2181.34,2.01,2.01,0,0,0-.62.7262l-1.03-.3677a2.4814,2.4814,0,0,1,.7378-1.0044,2.78,2.78,0,0,1,1.0112-.5056,4.2348,4.2348,0,0,1,1.0825-.1448,4.4589,4.4589,0,0,1,.7837.0805,2.5656,2.5656,0,0,1,.86.3286,1.9259,1.9259,0,0,1,.6918.7493,2.7877,2.7877,0,0,1,.2757,1.3421v4.6517H70.9566v-.9561h-.0552a1.91,1.91,0,0,1-.3677.4918,2.1223,2.1223,0,0,1-.6848.4459A2.6408,2.6408,0,0,1,68.8054,36.2407Zm.1655-.9745a2.1647,2.1647,0,0,0,1.0871-.2528,1.7419,1.7419,0,0,0,.6711-.6527,1.676,1.676,0,0,0,.2275-.8411v-.9929a.6334.6334,0,0,1-.3011.1494,4.5806,4.5806,0,0,1-.5332.1149q-.3012.0483-.5838.0827t-.4573.0575a4.2145,4.2145,0,0,0-.7883.1769,1.3736,1.3736,0,0,0-.5883.3632.9273.9273,0,0,0-.223.655.965.965,0,0,0,.4206.8526A1.8539,1.8539,0,0,0,68.9709,35.2662Z"/><path class="cls-1" d="M77.0975,29.015v.9192H75.59v4.1185a1.3728,1.3728,0,0,0,.1357.6872.665.665,0,0,0,.3493.3034,1.3458,1.3458,0,0,0,.4528.0758,1.7005,1.7005,0,0,0,.2941-.0207q.1149-.0207.1839-.0344l.2206.9744a2.2523,2.2523,0,0,1-.809.1287,2.1687,2.1687,0,0,1-.8986-.1976,1.7694,1.7694,0,0,1-.7262-.6022,1.7184,1.7184,0,0,1-.2873-1.02V29.9342H73.4386V29.015H74.505V27.3235H75.59V29.015Z"/><path class="cls-1" d="M81.5285,36.2223a2.9844,2.9844,0,0,1-2.7971-1.7283,4.2861,4.2861,0,0,1-.4021-1.9122,4.3384,4.3384,0,0,1,.4021-1.9259,3.0945,3.0945,0,0,1,5.594,0,4.3384,4.3384,0,0,1,.4021,1.9259,4.2861,4.2861,0,0,1-.4021,1.9122,2.9844,2.9844,0,0,1-2.7969,1.7283Zm0-.9745a1.8624,1.8624,0,0,0,1.195-.3723,2.1951,2.1951,0,0,0,.6941-.9791,3.7488,3.7488,0,0,0,.2252-1.3146,3.7884,3.7884,0,0,0-.2252-1.3192,2.2244,2.2244,0,0,0-.6941-.9882,2.0832,2.0832,0,0,0-2.39,0,2.2226,2.2226,0,0,0-.694.9882,3.7861,3.7861,0,0,0-.2253,1.3192,3.7466,3.7466,0,0,0,.2253,1.3146,2.1934,2.1934,0,0,0,.694.9791A1.8626,1.8626,0,0,0,81.5285,35.2478Z"/><path class="cls-1" d="M86.3823,36.0752v-7.06H87.43v1.0664h.0735a1.6709,1.6709,0,0,1,.6941-.85,2.0652,2.0652,0,0,1,1.1446-.3263,1.73,1.73,0,0,1,.5148.0689,1.3347,1.3347,0,0,1,.386.1885l-.3677.9193a1.107,1.107,0,0,0-.2689-.0943,1.641,1.641,0,0,0-.3562-.0344,1.8012,1.8012,0,0,0-1.2778.4711,1.55,1.55,0,0,0-.5056,1.1836v4.4678Z"/><path class="cls-1" d="M96.3474,30.5961l-.9744.2759a1.9257,1.9257,0,0,0-.4781-.6895,1.47,1.47,0,0,0-1.048-.3218,1.8539,1.8539,0,0,0-1.0778.2965.8844.8844,0,0,0-.43.7515.7733.7733,0,0,0,.2942.639,2.4573,2.4573,0,0,0,.9193.3907l1.0479.2574q1.8754.46,1.8754,1.9121a1.8,1.8,0,0,1-.347,1.0847,2.3344,2.3344,0,0,1-.9676.7539,3.525,3.525,0,0,1-1.4433.2758,3.1729,3.1729,0,0,1-1.788-.4689,2.0786,2.0786,0,0,1-.8963-1.37l1.03-.2573a1.4811,1.4811,0,0,0,1.6364,1.14,2.0188,2.0188,0,0,0,1.2065-.324.9441.9441,0,0,0,.4482-.7791q0-.7492-1.048-.9929L93.13,32.8944a2.78,2.78,0,0,1-1.4226-.7147,1.7122,1.7122,0,0,1-.4528-1.2158,1.7385,1.7385,0,0,1,.3378-1.0572,2.2643,2.2643,0,0,1,.924-.7217,3.2284,3.2284,0,0,1,1.3306-.262,2.6492,2.6492,0,0,1,1.6479.46A2.4839,2.4839,0,0,1,96.3474,30.5961Z"/></g><g id="Capa_7" data-name="Capa 7"><path class="cls-1" d="M38.6788,21.0806a1.046,1.046,0,0,1-1.1475-1.1476V4.5667a1.2316,1.2316,0,0,1,2.4631,0V18.8694h8.2569a1.1057,1.1057,0,1,1,0,2.2112Z"/><path class="cls-1" d="M50.9382,14.811a6.6755,6.6755,0,1,1,6.6335,6.6615A6.6128,6.6128,0,0,1,50.9382,14.811Zm11.0838,0a4.3141,4.3141,0,0,0-4.45-4.5344,4.2333,4.2333,0,0,0-4.3664,4.5344,4.41,4.41,0,1,0,8.8167,0Z"/><path class="cls-1" d="M67.7313,24.5793a1.0236,1.0236,0,0,1-.5877-.8957A1.01,1.01,0,0,1,68.599,22.76a7.7955,7.7955,0,0,0,3.4427.7837c2.5471,0,3.8906-1.12,3.8906-3.8626v-.5877a5.4215,5.4215,0,0,1-3.9186,1.6514A6.0965,6.0965,0,0,1,66.052,14.391a6.028,6.028,0,0,1,5.9617-6.2416,5.2355,5.2355,0,0,1,3.9186,1.7354V9.5769a1.1336,1.1336,0,1,1,2.2671,0V19.6251c0,3.9186-2.2111,6.0458-6.1577,6.0458A9.9315,9.9315,0,0,1,67.7313,24.5793Zm8.201-8.3969V12.6837A4.1644,4.1644,0,0,0,72.35,10.2766a3.8869,3.8869,0,0,0-4.03,4.1144,3.9036,3.9036,0,0,0,4.03,4.2265A4.16,4.16,0,0,0,75.9323,16.1824Z"/><path class="cls-1" d="M80.9421,4.9306A1.5815,1.5815,0,1,1,82.5375,6.526,1.5772,1.5772,0,0,1,80.9421,4.9306ZM81.39,20.3249V9.2969a1.1336,1.1336,0,1,1,2.2671,0v11.028a1.1336,1.1336,0,1,1-2.2671,0Z"/><path class="cls-1" d="M86.036,14.811A6.5831,6.5831,0,0,1,92.67,8.1494a7.4923,7.4923,0,0,1,3.2189.7,1.0327,1.0327,0,0,1,.5877.9237,1.0441,1.0441,0,0,1-1.4554.9517,5.2487,5.2487,0,0,0-2.2952-.4479,4.2467,4.2467,0,0,0-4.4223,4.5344,4.2466,4.2466,0,0,0,4.4223,4.5342,5.2488,5.2488,0,0,0,2.2952-.4478,1.044,1.044,0,0,1,1.4554.9516,1.0326,1.0326,0,0,1-.5877.9237,7.4924,7.4924,0,0,1-3.2189.7A6.583,6.583,0,0,1,86.036,14.811Z"/><rect class="cls-2" x="23.2914" y="3.3352" width="8.6676" height="32.9055" rx="2.0314"/><path class="cls-2" d="M20.4066,10.5017H15.1957A1.7284,1.7284,0,0,0,13.4673,12.23V27.4416H12.283v-8.045a1.7283,1.7283,0,0,0-1.7283-1.7283H5.3438a1.7283,1.7283,0,0,0-1.7284,1.7283V34.5123a1.7284,1.7284,0,0,0,1.7284,1.7284H20.4066a1.7283,1.7283,0,0,0,1.7283-1.7284V12.23A1.7283,1.7283,0,0,0,20.4066,10.5017Z"/><path class="cls-3" d="M4.7573,20.3129V33.596A1.5178,1.5178,0,0,0,6.29,35.0989h13.171a1.5179,1.5179,0,0,0,1.5324-1.5029V30.1191a1.55,1.55,0,0,0-1.5646-1.5343h-7.6a.6688.6688,0,0,1-.6752-.6622v-7.61A1.5178,1.5178,0,0,0,9.6208,18.81H6.29A1.5177,1.5177,0,0,0,4.7573,20.3129Z"/><rect class="cls-3" x="24.4332" y="12.0815" width="6.3839" height="23.0174" rx="1.4962"/><rect class="cls-3" x="24.4332" y="4.4663" width="6.3839" height="6.4734" rx="1.4962"/></g></svg>