<svg xmlns="http://www.w3.org/2000/svg" width="126.8065" height="40" viewBox="0 0 126.8065 40"><defs><style>.cls-1{fill:#1c2d45;}.cls-2{fill:#19bf8c;}.cls-3{fill:#fff;}</style></defs><g id="Capa_7" data-name="Capa 7"><path class="cls-1" d="M43.7435,31.7247a1.42,1.42,0,0,1-1.5582-1.5582V9.3015a1.6723,1.6723,0,0,1,3.3445,0V28.7223H56.7414a1.5013,1.5013,0,1,1,0,3.0024Z"/><path class="cls-1" d="M60.39,23.2116a9.0643,9.0643,0,1,1,9.0073,9.0452A8.9791,8.9791,0,0,1,60.39,23.2116Zm15.05,0a5.8577,5.8577,0,0,0-6.0428-6.1569c-3.5345,0-5.9289,2.5083-5.9289,6.1569a5.7662,5.7662,0,0,0,6.0048,6.1567C73.0454,29.3683,75.44,26.936,75.44,23.2116Z"/><path class="cls-1" d="M83.1921,36.4753a1.3894,1.3894,0,0,1-.7981-1.2161A1.3719,1.3719,0,0,1,84.37,34.005a10.5839,10.5839,0,0,0,4.6746,1.0642c3.4586,0,5.2829-1.52,5.2829-5.2448v-.798a7.3619,7.3619,0,0,1-5.3208,2.2423c-4.5606,0-8.0951-3.8006-8.0951-8.6273a8.1852,8.1852,0,0,1,8.0951-8.4752,7.1089,7.1089,0,0,1,5.3208,2.3564v-.418a1.5393,1.5393,0,1,1,3.0783,0V29.7483c0,5.3209-3.0024,8.2092-8.3612,8.2092A13.4826,13.4826,0,0,1,83.1921,36.4753ZM94.3277,25.0737V20.3231a5.6546,5.6546,0,0,0-4.8647-3.2684A5.2779,5.2779,0,0,0,83.99,22.6414c0,3.4585,2.2044,5.7388,5.4729,5.7388A5.6489,5.6489,0,0,0,94.3277,25.0737Z"/><path class="cls-1" d="M101.13,9.7956a2.1474,2.1474,0,1,1,2.1662,2.1663A2.1414,2.1414,0,0,1,101.13,9.7956Zm.6081,20.903V15.7244a1.5393,1.5393,0,1,1,3.0783,0V30.6986a1.5393,1.5393,0,1,1-3.0783,0Z"/><path class="cls-1" d="M108.0468,23.2116a8.9387,8.9387,0,0,1,9.0072-9.0454,10.1737,10.1737,0,0,1,4.3707.95,1.4022,1.4022,0,0,1,.7981,1.2542,1.4176,1.4176,0,0,1-1.9762,1.2922,7.1285,7.1285,0,0,0-3.1165-.608,5.7662,5.7662,0,0,0-6.0048,6.1569,5.7662,5.7662,0,0,0,6.0048,6.1567,7.127,7.127,0,0,0,3.1165-.6081,1.4177,1.4177,0,0,1,1.9762,1.2922,1.4021,1.4021,0,0,1-.7981,1.2542,10.1723,10.1723,0,0,1-4.3707.95A8.9387,8.9387,0,0,1,108.0468,23.2116Z"/><rect class="cls-2" x="22.7185" y="2.0425" width="7.9887" height="30.3282" rx="2.0314"/><path class="cls-2" d="M20.06,8.6477H15.2569a1.593,1.593,0,0,0-1.5929,1.593v14.02H12.5724V16.8459a1.593,1.593,0,0,0-1.593-1.5929H6.1767a1.593,1.593,0,0,0-1.593,1.5929V30.7777a1.593,1.593,0,0,0,1.593,1.593H20.06a1.5931,1.5931,0,0,0,1.593-1.593V10.2407A1.5931,1.5931,0,0,0,20.06,8.6477Z"/><path class="cls-3" d="M5.6361,17.6905V29.9332a1.3989,1.3989,0,0,0,1.4124,1.3851H19.1879A1.399,1.399,0,0,0,20.6,29.9332V26.7286a1.4284,1.4284,0,0,0-1.442-1.4142H12.1534a.6164.6164,0,0,1-.6223-.61V17.6905a1.399,1.399,0,0,0-1.4124-1.3851h-3.07A1.3989,1.3989,0,0,0,5.6361,17.6905Z"/><rect class="cls-3" x="23.7709" y="10.1037" width="5.8839" height="21.2146" rx="1.4962"/><rect class="cls-3" x="23.7709" y="3.085" width="5.8839" height="5.9664" rx="1.4962"/></g></svg>