<svg xmlns="http://www.w3.org/2000/svg" width="249.658" height="40" viewBox="0 0 249.658 40"><defs><style>.cls-1{fill:#1c2d45;}.cls-2{fill:#19bf8c;}.cls-3{fill:#fff;}</style></defs><g id="Capa_4" data-name="Capa 4"><path class="cls-1" d="M132.1506,17.0331a1.4048,1.4048,0,0,1-1.003-.3979,1.301,1.301,0,0,1,0-1.9126,1.4632,1.4632,0,0,1,2.0059,0,1.3008,1.3008,0,0,1,0,1.9126A1.4047,1.4047,0,0,1,132.1506,17.0331ZM131.135,32.1994v-13h1.9974v13Z"/><path class="cls-1" d="M138.7859,24.3793v7.82h-1.9974v-13h1.93v2.0312h.1692a3.74,3.74,0,0,1,1.388-1.5954,4.91,4.91,0,0,1,5.59.6051,5.0233,5.0233,0,0,1,1.2146,3.6986v8.26h-1.9975V24.0746a3.3856,3.3856,0,0,0-.7955-2.391,2.8305,2.8305,0,0,0-2.1836-.859,3.25,3.25,0,0,0-2.374.9268A3.5167,3.5167,0,0,0,138.7859,24.3793Z"/><path class="cls-1" d="M155.6448,32.47a5.07,5.07,0,0,1-2.8692-.8253,5.51,5.51,0,0,1-1.9466-2.3357,8.415,8.415,0,0,1-.7023-3.576,8.34,8.34,0,0,1,.7023-3.5544,5.4626,5.4626,0,0,1,1.9551-2.3275,5.16,5.16,0,0,1,2.8945-.8211,4.09,4.09,0,0,1,2.01.419,3.5847,3.5847,0,0,1,1.1342.9479q.3935.5292.6136.8675h.1692V14.8664h1.9975v17.333h-1.93V30.202h-.2369q-.22.3556-.6263.8929a3.6426,3.6426,0,0,1-1.16.9564A4.1249,4.1249,0,0,1,155.6448,32.47Zm.2708-1.7943a3.159,3.159,0,0,0,2.7634-1.3837,6.1725,6.1725,0,0,0,.96-3.5927,6.0022,6.0022,0,0,0-.9479-3.5292,3.18,3.18,0,0,0-2.776-1.3458,3.3615,3.3615,0,0,0-2.1116.6476,3.8875,3.8875,0,0,0-1.2611,1.7518,6.9361,6.9361,0,0,0-.419,2.4756,7.07,7.07,0,0,0,.4274,2.5178,4.0484,4.0484,0,0,0,1.27,1.7943A3.2756,3.2756,0,0,0,155.9156,30.676Z"/><path class="cls-1" d="M166.5454,17.0331a1.4046,1.4046,0,0,1-1.0028-.3979,1.3008,1.3008,0,0,1,0-1.9126,1.463,1.463,0,0,1,2.0057,0,1.3008,1.3008,0,0,1,0,1.9126A1.4047,1.4047,0,0,1,166.5454,17.0331ZM165.53,32.1994v-13h1.9974v13Z"/><path class="cls-1" d="M176.4645,32.47a5.44,5.44,0,0,1-5.18-3.2415,8.0577,8.0577,0,0,1-.7108-3.4615,7.9688,7.9688,0,0,1,.7321-3.5,5.7463,5.7463,0,0,1,2.0482-2.3781,5.5,5.5,0,0,1,3.0763-.8592,5.83,5.83,0,0,1,2.4713.5079,4.7324,4.7324,0,0,1,1.8027,1.4219,4.4359,4.4359,0,0,1,.8718,2.1328H179.579a3.1306,3.1306,0,0,0-1.0113-1.5785,3.0674,3.0674,0,0,0-2.1032-.69,3.4431,3.4431,0,0,0-2.8226,1.333,5.49,5.49,0,0,0-1.0707,3.542,5.7289,5.7289,0,0,0,1.058,3.618,3.4089,3.4089,0,0,0,2.8353,1.3584,3.3317,3.3317,0,0,0,2.0016-.6008,2.8826,2.8826,0,0,0,1.1129-1.6673h1.9974a4.625,4.625,0,0,1-.8337,2.0692,4.6743,4.6743,0,0,1-1.7519,1.4557A5.6361,5.6361,0,0,1,176.4645,32.47Z"/><path class="cls-1" d="M188.3128,32.5042a5.2416,5.2416,0,0,1-2.2428-.47,3.6879,3.6879,0,0,1-2.1919-3.5249,3.3591,3.3591,0,0,1,.44-1.8154,3.1179,3.1179,0,0,1,1.1765-1.0961,6.283,6.283,0,0,1,1.6292-.5966q.8928-.1988,1.7985-.3174,1.1847-.1524,1.9254-.2327a2.9427,2.9427,0,0,0,1.0833-.2752.7127.7127,0,0,0,.3428-.6771v-.0677a2.6614,2.6614,0,0,0-.6813-1.9465,2.7709,2.7709,0,0,0-2.0609-.6939,3.5926,3.5926,0,0,0-2.2428.6262,3.7029,3.7029,0,0,0-1.1425,1.3371l-1.8958-.6769a4.5665,4.5665,0,0,1,1.3584-1.8493,5.1182,5.1182,0,0,1,1.8619-.931,7.7967,7.7967,0,0,1,1.9931-.2667,8.2182,8.2182,0,0,1,1.443.1482,4.7233,4.7233,0,0,1,1.5827.6051,3.5462,3.5462,0,0,1,1.2737,1.38,5.1316,5.1316,0,0,1,.5078,2.4712v8.5649h-1.9973v-1.76h-.1016a3.5181,3.5181,0,0,1-.6771.9055,3.9043,3.9043,0,0,1-1.261.8209A4.8606,4.8606,0,0,1,188.3128,32.5042Zm.3048-1.7943a3.9858,3.9858,0,0,0,2.0015-.4655,3.2057,3.2057,0,0,0,1.2357-1.2018,3.0861,3.0861,0,0,0,.419-1.5487V25.6657a1.1665,1.1665,0,0,1-.5544.2751,8.4107,8.4107,0,0,1-.9817.2115q-.5547.089-1.075.1524t-.842.1058a7.7455,7.7455,0,0,0-1.4515.3258,2.5285,2.5285,0,0,0-1.0832.6686,1.7077,1.7077,0,0,0-.4107,1.2061,1.7766,1.7766,0,0,0,.7746,1.57A3.4128,3.4128,0,0,0,188.6176,30.71Z"/><path class="cls-1" d="M203.5808,19.2v1.6926h-2.7761v7.5833a2.5269,2.5269,0,0,0,.25,1.2652,1.2246,1.2246,0,0,0,.6432.5586,2.4748,2.4748,0,0,0,.8337.14,3.1518,3.1518,0,0,0,.5416-.0381q.2115-.0381.3385-.0635l.4063,1.7943a4.1532,4.1532,0,0,1-1.49.2369,3.9934,3.9934,0,0,1-1.6546-.3639,3.2564,3.2564,0,0,1-1.3371-1.1087,3.1641,3.1641,0,0,1-.529-1.8789V20.8923h-1.9635V19.2h1.9635V16.0851h1.9973V19.2Z"/><path class="cls-1" d="M211.7394,32.47a5.4946,5.4946,0,0,1-5.15-3.1823,7.89,7.89,0,0,1-.74-3.5207,7.9877,7.9877,0,0,1,.74-3.5462,5.6977,5.6977,0,0,1,10.3,0,7.99,7.99,0,0,1,.74,3.5462,7.8929,7.8929,0,0,1-.74,3.5207,5.4946,5.4946,0,0,1-5.15,3.1823Zm0-1.7943a3.4286,3.4286,0,0,0,2.2-.6855,4.0408,4.0408,0,0,0,1.278-1.8027,6.9033,6.9033,0,0,0,.4147-2.4205,6.9741,6.9741,0,0,0-.4147-2.429,4.0942,4.0942,0,0,0-1.278-1.82,3.8352,3.8352,0,0,0-4.401,0,4.0932,4.0932,0,0,0-1.2779,1.82,6.9719,6.9719,0,0,0-.4148,2.429,6.9011,6.9011,0,0,0,.4148,2.4205,4.04,4.04,0,0,0,1.2779,1.8027A3.429,3.429,0,0,0,211.7394,30.676Z"/><path class="cls-1" d="M220.6766,32.1994v-13h1.93v1.9636h.1353a3.0762,3.0762,0,0,1,1.2779-1.5659,3.8027,3.8027,0,0,1,2.1075-.6008,3.1885,3.1885,0,0,1,.9479.1268,2.46,2.46,0,0,1,.7109.3472l-.6771,1.6927a2.032,2.032,0,0,0-.4951-.1736,3.0177,3.0177,0,0,0-.6558-.0635,3.3166,3.3166,0,0,0-2.3529.8675,2.8529,2.8529,0,0,0-.931,2.1793v8.2264Z"/><path class="cls-1" d="M239.0251,22.111l-1.7942.5079a3.545,3.545,0,0,0-.88-1.2694,2.7059,2.7059,0,0,0-1.93-.5925,3.4133,3.4133,0,0,0-1.9847.5459,1.6284,1.6284,0,0,0-.7913,1.3837,1.424,1.424,0,0,0,.5416,1.1765,4.5258,4.5258,0,0,0,1.6927.7193l1.93.474q3.4528.8463,3.453,3.5207a3.3149,3.3149,0,0,1-.639,1.9973,4.2969,4.2969,0,0,1-1.7815,1.3881,6.4928,6.4928,0,0,1-2.6576.5078,5.8428,5.8428,0,0,1-3.2921-.8633,3.8271,3.8271,0,0,1-1.65-2.5222l1.8957-.4738A2.7274,2.7274,0,0,0,234.15,30.71a3.7158,3.7158,0,0,0,2.2215-.5967,1.7375,1.7375,0,0,0,.8252-1.4345q0-1.38-1.93-1.8282l-2.1666-.5077a5.1186,5.1186,0,0,1-2.6194-1.316,3.1527,3.1527,0,0,1-.8337-2.2387,3.2,3.2,0,0,1,.6221-1.9465,4.1684,4.1684,0,0,1,1.7012-1.3288,5.9449,5.9449,0,0,1,2.45-.4825,4.878,4.878,0,0,1,3.0341.8464A4.5738,4.5738,0,0,1,239.0251,22.111Z"/></g><g id="Capa_7" data-name="Capa 7"><path class="cls-1" d="M43.7435,31.7247a1.42,1.42,0,0,1-1.5582-1.5582V9.3015a1.6723,1.6723,0,0,1,3.3445,0V28.7223H56.7414a1.5013,1.5013,0,1,1,0,3.0024Z"/><path class="cls-1" d="M60.39,23.2116a9.0643,9.0643,0,1,1,9.0073,9.0452A8.9791,8.9791,0,0,1,60.39,23.2116Zm15.05,0a5.8577,5.8577,0,0,0-6.0428-6.1569c-3.5345,0-5.9289,2.5083-5.9289,6.1569a5.7662,5.7662,0,0,0,6.0048,6.1567C73.0454,29.3683,75.44,26.936,75.44,23.2116Z"/><path class="cls-1" d="M83.1921,36.4753a1.3894,1.3894,0,0,1-.7981-1.2161A1.3719,1.3719,0,0,1,84.37,34.005a10.5839,10.5839,0,0,0,4.6746,1.0642c3.4586,0,5.2829-1.52,5.2829-5.2448v-.798a7.3619,7.3619,0,0,1-5.3208,2.2423c-4.5606,0-8.0951-3.8006-8.0951-8.6273a8.1852,8.1852,0,0,1,8.0951-8.4752,7.1089,7.1089,0,0,1,5.3208,2.3564v-.418a1.5393,1.5393,0,1,1,3.0783,0V29.7483c0,5.3209-3.0024,8.2092-8.3612,8.2092A13.4826,13.4826,0,0,1,83.1921,36.4753ZM94.3277,25.0737V20.3231a5.6546,5.6546,0,0,0-4.8647-3.2684A5.2779,5.2779,0,0,0,83.99,22.6414c0,3.4585,2.2044,5.7388,5.4729,5.7388A5.6489,5.6489,0,0,0,94.3277,25.0737Z"/><path class="cls-1" d="M101.13,9.7956a2.1474,2.1474,0,1,1,2.1662,2.1663A2.1414,2.1414,0,0,1,101.13,9.7956Zm.6081,20.903V15.7244a1.5393,1.5393,0,1,1,3.0783,0V30.6986a1.5393,1.5393,0,1,1-3.0783,0Z"/><path class="cls-1" d="M108.0468,23.2116a8.9387,8.9387,0,0,1,9.0072-9.0454,10.1737,10.1737,0,0,1,4.3707.95,1.4022,1.4022,0,0,1,.7981,1.2542,1.4176,1.4176,0,0,1-1.9762,1.2922,7.1285,7.1285,0,0,0-3.1165-.608,5.7662,5.7662,0,0,0-6.0048,6.1569,5.7662,5.7662,0,0,0,6.0048,6.1567,7.127,7.127,0,0,0,3.1165-.6081,1.4177,1.4177,0,0,1,1.9762,1.2922,1.4021,1.4021,0,0,1-.7981,1.2542,10.1723,10.1723,0,0,1-4.3707.95A8.9387,8.9387,0,0,1,108.0468,23.2116Z"/><rect class="cls-2" x="22.7185" y="2.0425" width="7.9887" height="30.3282" rx="2.0314"/><path class="cls-2" d="M20.06,8.6477H15.2569a1.593,1.593,0,0,0-1.5929,1.593v14.02H12.5724V16.8459a1.593,1.593,0,0,0-1.593-1.5929H6.1767a1.593,1.593,0,0,0-1.593,1.5929V30.7777a1.593,1.593,0,0,0,1.593,1.593H20.06a1.5931,1.5931,0,0,0,1.593-1.593V10.2407A1.5931,1.5931,0,0,0,20.06,8.6477Z"/><path class="cls-3" d="M5.6361,17.6905V29.9332a1.3989,1.3989,0,0,0,1.4124,1.3851H19.1879A1.399,1.399,0,0,0,20.6,29.9332V26.7286a1.4284,1.4284,0,0,0-1.442-1.4142H12.1534a.6164.6164,0,0,1-.6223-.61V17.6905a1.399,1.399,0,0,0-1.4124-1.3851h-3.07A1.3989,1.3989,0,0,0,5.6361,17.6905Z"/><rect class="cls-3" x="23.7709" y="10.1037" width="5.8839" height="21.2146" rx="1.4962"/><rect class="cls-3" x="23.7709" y="3.085" width="5.8839" height="5.9664" rx="1.4962"/></g></svg>