<svg xmlns="http://www.w3.org/2000/svg" width="62.6481" height="20" viewBox="0 0 62.6481 20"><defs><style>.cls-1{fill:#1c2d45;}.cls-2{fill:#19bf8c;}.cls-3{fill:#fff;}</style></defs><g id="Capa_7" data-name="Capa 7"><path class="cls-1" d="M21.3115,15.9627a.7223.7223,0,0,1-.7924-.7924V4.5592a.85.85,0,0,1,1.7008,0v9.8766h5.7018a.7635.7635,0,1,1,0,1.5269Z"/><path class="cls-1" d="M29.7771,11.6333a4.61,4.61,0,1,1,4.5807,4.6A4.5664,4.5664,0,0,1,29.7771,11.6333Zm7.6538,0a2.979,2.979,0,0,0-3.0731-3.1312,2.9232,2.9232,0,0,0-3.0152,3.1312,3.0454,3.0454,0,1,0,6.0883,0Z"/><path class="cls-1" d="M41.3734,18.3787a.7067.7067,0,0,1-.4058-.6185.6977.6977,0,0,1,1.005-.6378,5.3832,5.3832,0,0,0,2.3773.5412c1.7589,0,2.6867-.7731,2.6867-2.6673V14.59a3.7437,3.7437,0,0,1-2.706,1.14,4.21,4.21,0,0,1-4.1168-4.3875,4.1626,4.1626,0,0,1,4.1168-4.31,3.6154,3.6154,0,0,1,2.706,1.1983V8.0189a.7828.7828,0,1,1,1.5655,0v6.9387c0,2.706-1.5269,4.1749-4.2522,4.1749A6.8584,6.8584,0,0,1,41.3734,18.3787ZM47.0366,12.58v-2.416a2.8757,2.8757,0,0,0-2.474-1.6622,2.6841,2.6841,0,0,0-2.7833,2.8412,2.6956,2.6956,0,0,0,2.7833,2.9185A2.8728,2.8728,0,0,0,47.0366,12.58Z"/><path class="cls-1" d="M50.4961,4.8105a1.092,1.092,0,1,1,1.1016,1.1016A1.089,1.089,0,0,1,50.4961,4.8105Zm.3092,10.63V7.8256a.7828.7828,0,1,1,1.5655,0v7.6153a.7828.7828,0,1,1-1.5655,0Z"/><path class="cls-1" d="M54.0136,11.6333a4.5459,4.5459,0,0,1,4.5807-4.6,5.1734,5.1734,0,0,1,2.2228.4832.7129.7129,0,0,1,.4058.6378.721.721,0,0,1-1.005.6572,3.6247,3.6247,0,0,0-1.5849-.3093,2.9325,2.9325,0,0,0-3.0538,3.1312,2.9325,2.9325,0,0,0,3.0538,3.131,3.6247,3.6247,0,0,0,1.5849-.3092.721.721,0,0,1,1.005.6572.7129.7129,0,0,1-.4058.6378,5.1734,5.1734,0,0,1-2.2228.4832A4.5458,4.5458,0,0,1,54.0136,11.6333Z"/><rect class="cls-2" x="10.619" y="0.8675" width="4.0627" height="15.4237" rx="2.0314"/><path class="cls-2" d="M9.2668,4.2267H6.8244a.81.81,0,0,0-.81.81v7.13H5.4591V8.396a.81.81,0,0,0-.81-.81H2.2065a.81.81,0,0,0-.81.81v7.0851a.81.81,0,0,0,.81.81h7.06a.81.81,0,0,0,.81-.81V5.0368A.81.81,0,0,0,9.2668,4.2267Z"/><path class="cls-3" d="M1.9316,8.8255v6.2261a.7114.7114,0,0,0,.7183.7044H8.8235a.7114.7114,0,0,0,.7183-.7044v-1.63a.7264.7264,0,0,0-.7334-.7192H5.246a.3135.3135,0,0,1-.3165-.31V8.8255a.7113.7113,0,0,0-.7182-.7044H2.65A.7114.7114,0,0,0,1.9316,8.8255Z"/><rect class="cls-3" x="11.1542" y="4.9672" width="2.9923" height="10.7889" rx="1.4962"/><rect class="cls-3" x="11.1542" y="1.3977" width="2.9923" height="3.0342" rx="1.4962"/></g></svg>